Stretch Light Display Narrow Cy Sc vv(-6.4-0.0)-(110.0-100.0)-0.0-0.0-(0.0-0.0).ufo
<glyph name="aie-cy.sc" format="1">
  <advance width="1496"/>
  <outline>
    <contour>
      <point x="653" y="96" type="line"/>
      <point x="514" y="80" type="line"/>
      <point x="514" y="0" type="line"/>
      <point x="1410" y="0" type="line"/>
      <point x="1472" y="302" type="line"/>
      <point x="1378" y="328" type="line"/>
      <point x="1283" y="108" type="line"/>
      <point x="814" y="90" type="line"/>
      <point x="814" y="620" type="line"/>
      <point x="1090" y="616" type="line"/>
      <point x="1111" y="466" type="line"/>
      <point x="1198" y="466" type="line"/>
      <point x="1198" y="858" type="line"/>
      <point x="1110" y="858" type="line"/>
      <point x="1089" y="714" type="line"/>
      <point x="814" y="710" type="line"/>
      <point x="814" y="1210" type="line"/>
      <point x="1223" y="1200" type="line"/>
      <point x="1273" y="1024" type="line"/>
      <point x="1361" y="1024" type="line"/>
      <point x="1333" y="1292" type="line"/>
      <point x="213" y="1292" type="line"/>
      <point x="213" y="1214" type="line"/>
      <point x="431" y="1194" type="line"/>
      <point x="-23" y="96" type="line"/>
      <point x="-140" y="80" type="line"/>
      <point x="-140" y="0" type="line"/>
      <point x="246" y="0" type="line"/>
      <point x="246" y="80" type="line"/>
      <point x="122" y="96" type="line"/>
      <point x="229" y="378" type="line"/>
      <point x="653" y="378" type="line"/>
    </contour>
    <contour>
      <point x="653" y="476" type="line"/>
      <point x="266" y="476" type="line"/>
      <point x="456" y="976" type="line"/>
      <point x="544" y="1202" type="line"/>
      <point x="653" y="1202" type="line"/>
    </contour>
  </outline>
</glyph>
<glyph name="be-cy.sc" format="1">
  <advance width="913"/>
  <outline>
    <contour>
      <point x="457" y="-144" type="move" name="mark0"/>
    </contour>
    <contour>
      <point x="276" y="762" type="curve"/>
      <point x="276" y="1226" type="line"/>
      <point x="662" y="1210" type="line"/>
      <point x="706" y="958" type="line"/>
      <point x="765" y="960" type="line"/>
      <point x="767" y="1292" type="line"/>
      <point x="13" y="1292" type="line"/>
      <point x="13" y="1257" type="line"/>
      <point x="121" y="1231" type="line"/>
      <point x="118" y="61" type="line"/>
      <point x="10" y="35" type="line"/>
      <point x="11" y="0" type="line"/>
      <point x="185" y="0" type="line" smooth="yes"/>
      <point x="270" y="0"/>
      <point x="367" y="-14"/>
      <point x="440" y="-14" type="curve" smooth="yes"/>
      <point x="663" y="-14"/>
      <point x="857" y="97"/>
      <point x="857" y="382" type="curve" smooth="yes"/>
      <point x="857" y="643"/>
      <point x="687" y="781"/>
      <point x="436" y="781" type="curve" smooth="yes"/>
      <point x="367" y="781"/>
      <point x="309" y="771"/>
    </contour>
    <contour>
      <point x="274" y="61" type="curve"/>
      <point x="276" y="700" type="line"/>
      <point x="308" y="710"/>
      <point x="366" y="720"/>
      <point x="413" y="720" type="curve" smooth="yes"/>
      <point x="609" y="720"/>
      <point x="696" y="582"/>
      <point x="696" y="382" type="curve" smooth="yes"/>
      <point x="696" y="154"/>
      <point x="589" y="36"/>
      <point x="445" y="36" type="curve" smooth="yes"/>
      <point x="373" y="36"/>
      <point x="313" y="51"/>
    </contour>
  </outline>
</glyph>
<glyph name="che-cy.sc" format="1">
  <advance width="906"/>
  <outline>
    <contour>
      <point x="455" y="-144" type="move" name="btm"/>
    </contour>
    <contour>
      <point x="389" y="1292" type="move" name="top"/>
    </contour>
    <contour>
      <point x="619" y="598" type="curve"/>
      <point x="617" y="61" type="line"/>
      <point x="497" y="35" type="line"/>
      <point x="496" y="0" type="line"/>
      <point x="887" y="0" type="line"/>
      <point x="888" y="35" type="line"/>
      <point x="773" y="61" type="line"/>
      <point x="776" y="1231" type="line"/>
      <point x="884" y="1257" type="line"/>
      <point x="885" y="1292" type="line"/>
      <point x="506" y="1292" type="line"/>
      <point x="505" y="1257" type="line"/>
      <point x="620" y="1231" type="line"/>
      <point x="619" y="664" type="line"/>
      <point x="560" y="618"/>
      <point x="479" y="589"/>
      <point x="391" y="589" type="curve" smooth="yes"/>
      <point x="205" y="589"/>
      <point x="172" y="721"/>
      <point x="172" y="944" type="curve" smooth="yes"/>
      <point x="172" y="1231" type="line"/>
      <point x="278" y="1257" type="line"/>
      <point x="279" y="1292" type="line"/>
      <point x="-90" y="1292" type="line"/>
      <point x="-91" y="1257" type="line"/>
      <point x="17" y="1231" type="line"/>
      <point x="16" y="901" type="line" smooth="yes"/>
      <point x="15" y="642"/>
      <point x="131" y="520"/>
      <point x="350" y="520" type="curve" smooth="yes"/>
      <point x="446" y="520"/>
      <point x="541" y="544"/>
    </contour>
  </outline>
</glyph>
<glyph name="cheabkhasian-cy.sc" format="1">
  <advance width="1150"/>
  <outline>
    <contour>
      <point x="702" y="0" type="move" name="bottom"/>
    </contour>
    <contour>
      <point x="1053" y="68" type="curve"/>
      <point x="1052" y="359" type="line"/>
      <point x="978" y="359" type="line"/>
      <point x="956" y="141" type="line"/>
      <point x="932" y="82"/>
      <point x="835" y="48"/>
      <point x="757" y="48" type="curve" smooth="yes"/>
      <point x="521" y="48"/>
      <point x="426" y="285"/>
      <point x="394" y="577" type="curve" smooth="yes"/>
      <point x="391" y="598"/>
      <point x="389" y="619"/>
      <point x="388" y="640" type="curve"/>
      <point x="1087" y="640" type="line"/>
      <point x="1094" y="685"/>
      <point x="1100" y="772"/>
      <point x="1089" y="868" type="curve" smooth="yes"/>
      <point x="1058" y="1142"/>
      <point x="934" y="1309"/>
      <point x="702" y="1309" type="curve" smooth="yes"/>
      <point x="406" y="1309"/>
      <point x="232" y="1042"/>
      <point x="225" y="707" type="curve"/>
      <point x="151" y="714"/>
      <point x="98" y="735"/>
      <point x="91" y="803" type="curve" smooth="yes"/>
      <point x="85" y="845"/>
      <point x="99" y="887"/>
      <point x="122" y="918" type="curve"/>
      <point x="13" y="943" type="line"/>
      <point x="-17" y="909"/>
      <point x="-34" y="863"/>
      <point x="-26" y="799" type="curve" smooth="yes"/>
      <point x="-13" y="680"/>
      <point x="103" y="649"/>
      <point x="226" y="641" type="curve"/>
      <point x="227" y="619"/>
      <point x="229" y="596"/>
      <point x="233" y="573" type="curve" smooth="yes"/>
      <point x="273" y="225"/>
      <point x="444" y="-7"/>
      <point x="739" y="-7" type="curve" smooth="yes"/>
      <point x="901" y="-7"/>
      <point x="994" y="50"/>
    </contour>
    <contour>
      <point x="944" y="704" type="curve"/>
      <point x="385" y="704" type="line"/>
      <point x="382" y="982"/>
      <point x="477" y="1254"/>
      <point x="694" y="1254" type="curve" smooth="yes"/>
      <point x="851" y="1254"/>
      <point x="920" y="1091"/>
      <point x="941" y="896" type="curve" smooth="yes"/>
      <point x="949" y="831"/>
      <point x="950" y="759"/>
    </contour>
  </outline>
</glyph>
<glyph name="chedescender-cy.sc" format="1">
  <advance width="902"/>
  <outline>
    <contour>
      <point x="514" y="-144" type="move" name="btm"/>
    </contour>
    <contour>
      <point x="310" y="1444" type="move" name="top"/>
    </contour>
    <contour>
      <point x="903" y="67" type="curve"/>
      <point x="754" y="67" type="line"/>
      <point x="757" y="1231" type="line"/>
      <point x="865" y="1257" type="line"/>
      <point x="866" y="1292" type="line"/>
      <point x="486" y="1292" type="line"/>
      <point x="486" y="1257" type="line"/>
      <point x="601" y="1231" type="line"/>
      <point x="600" y="664" type="line"/>
      <point x="541" y="618"/>
      <point x="460" y="589"/>
      <point x="372" y="589" type="curve" smooth="yes"/>
      <point x="186" y="589"/>
      <point x="152" y="721"/>
      <point x="153" y="944" type="curve" smooth="yes"/>
      <point x="153" y="1231" type="line"/>
      <point x="259" y="1257" type="line"/>
      <point x="260" y="1292" type="line"/>
      <point x="-110" y="1292" type="line"/>
      <point x="-110" y="1257" type="line"/>
      <point x="-2" y="1231" type="line"/>
      <point x="-3" y="901" type="line" smooth="yes"/>
      <point x="-4" y="642"/>
      <point x="112" y="520"/>
      <point x="331" y="520" type="curve" smooth="yes"/>
      <point x="427" y="520"/>
      <point x="522" y="544"/>
      <point x="600" y="598" type="curve"/>
      <point x="598" y="61" type="line"/>
      <point x="478" y="35" type="line"/>
      <point x="478" y="0" type="line"/>
      <point x="766" y="0" type="line"/>
      <point x="770" y="-36"/>
      <point x="775" y="-229"/>
      <point x="776" y="-320" type="curve"/>
      <point x="861" y="-320" type="line"/>
      <point x="877" y="-220"/>
      <point x="897" y="-25"/>
    </contour>
  </outline>
</glyph>
<glyph name="chedieresis-cy.sc" format="1">
  <advance width="906"/>
  <outline>
    <contour>
      <point x="507" y="1347" type="curve"/>
      <point x="552" y="1347"/>
      <point x="590" y="1393"/>
      <point x="590" y="1451" type="curve" smooth="yes"/>
      <point x="590" y="1489"/>
      <point x="568" y="1537"/>
      <point x="519" y="1537" type="curve" smooth="yes"/>
      <point x="475" y="1537"/>
      <point x="436" y="1491"/>
      <point x="436" y="1433" type="curve" smooth="yes"/>
      <point x="436" y="1395"/>
      <point x="458" y="1347"/>
    </contour>
    <contour>
      <point x="259" y="1347" type="curve"/>
      <point x="303" y="1347"/>
      <point x="342" y="1393"/>
      <point x="342" y="1451" type="curve" smooth="yes"/>
      <point x="342" y="1489"/>
      <point x="320" y="1537"/>
      <point x="271" y="1537" type="curve" smooth="yes"/>
      <point x="226" y="1537"/>
      <point x="188" y="1491"/>
      <point x="188" y="1433" type="curve" smooth="yes"/>
      <point x="188" y="1395"/>
      <point x="210" y="1347"/>
    </contour>
    <contour>
      <point x="619" y="598" type="curve"/>
      <point x="617" y="61" type="line"/>
      <point x="497" y="35" type="line"/>
      <point x="496" y="0" type="line"/>
      <point x="887" y="0" type="line"/>
      <point x="888" y="35" type="line"/>
      <point x="773" y="61" type="line"/>
      <point x="776" y="1231" type="line"/>
      <point x="884" y="1257" type="line"/>
      <point x="885" y="1292" type="line"/>
      <point x="506" y="1292" type="line"/>
      <point x="505" y="1257" type="line"/>
      <point x="620" y="1231" type="line"/>
      <point x="619" y="664" type="line"/>
      <point x="560" y="618"/>
      <point x="479" y="589"/>
      <point x="391" y="589" type="curve" smooth="yes"/>
      <point x="205" y="589"/>
      <point x="172" y="721"/>
      <point x="172" y="944" type="curve" smooth="yes"/>
      <point x="172" y="1231" type="line"/>
      <point x="278" y="1257" type="line"/>
      <point x="279" y="1292" type="line"/>
      <point x="-90" y="1292" type="line"/>
      <point x="-91" y="1257" type="line"/>
      <point x="17" y="1231" type="line"/>
      <point x="16" y="901" type="line" smooth="yes"/>
      <point x="15" y="642"/>
      <point x="131" y="520"/>
      <point x="350" y="520" type="curve" smooth="yes"/>
      <point x="446" y="520"/>
      <point x="541" y="544"/>
    </contour>
  </outline>
</glyph>
<glyph name="chekhakassian-cy.sc" format="1">
  <advance width="908"/>
  <outline>
    <contour>
      <point x="535" y="0" type="curve"/>
      <point x="872" y="0" type="line"/>
      <point x="872" y="35" type="line"/>
      <point x="757" y="61" type="line"/>
      <point x="760" y="1231" type="line"/>
      <point x="868" y="1257" type="line"/>
      <point x="868" y="1292" type="line"/>
      <point x="489" y="1292" type="line"/>
      <point x="489" y="1257" type="line"/>
      <point x="604" y="1231" type="line"/>
      <point x="603" y="664" type="line"/>
      <point x="544" y="618"/>
      <point x="463" y="589"/>
      <point x="375" y="589" type="curve" smooth="yes"/>
      <point x="189" y="589"/>
      <point x="155" y="721"/>
      <point x="156" y="944" type="curve" smooth="yes"/>
      <point x="156" y="1231" type="line"/>
      <point x="262" y="1257" type="line"/>
      <point x="263" y="1292" type="line"/>
      <point x="-107" y="1292" type="line"/>
      <point x="-107" y="1257" type="line"/>
      <point x="0" y="1231" type="line"/>
      <point x="0" y="901" type="line" smooth="yes"/>
      <point x="-1" y="642"/>
      <point x="115" y="520"/>
      <point x="334" y="520" type="curve" smooth="yes"/>
      <point x="430" y="520"/>
      <point x="525" y="544"/>
      <point x="603" y="598" type="curve"/>
      <point x="601" y="67" type="line"/>
      <point x="410" y="67" type="line"/>
      <point x="406" y="-19"/>
      <point x="396" y="-217"/>
      <point x="393" y="-320" type="curve"/>
      <point x="472" y="-320" type="line"/>
      <point x="488" y="-226"/>
      <point x="516" y="-89"/>
    </contour>
  </outline>
</glyph>
<glyph name="cheverticalstroke-cy.sc" format="1">
  <advance width="906"/>
  <outline>
    <contour>
      <point x="619" y="598" type="curve"/>
      <point x="617" y="61" type="line"/>
      <point x="497" y="35" type="line"/>
      <point x="496" y="0" type="line"/>
      <point x="887" y="0" type="line"/>
      <point x="888" y="35" type="line"/>
      <point x="773" y="61" type="line"/>
      <point x="776" y="1231" type="line"/>
      <point x="884" y="1257" type="line"/>
      <point x="885" y="1292" type="line"/>
      <point x="506" y="1292" type="line"/>
      <point x="505" y="1257" type="line"/>
      <point x="620" y="1231" type="line"/>
      <point x="619" y="664" type="line"/>
      <point x="569" y="625"/>
      <point x="504" y="598"/>
      <point x="433" y="591" type="curve"/>
      <point x="433" y="897" type="line"/>
      <point x="383" y="897" type="line"/>
      <point x="383" y="589" type="line"/>
      <point x="203" y="592"/>
      <point x="171" y="724"/>
      <point x="172" y="944" type="curve" smooth="yes"/>
      <point x="172" y="1231" type="line"/>
      <point x="278" y="1257" type="line"/>
      <point x="279" y="1292" type="line"/>
      <point x="-90" y="1292" type="line"/>
      <point x="-91" y="1257" type="line"/>
      <point x="17" y="1231" type="line"/>
      <point x="16" y="901" type="line" smooth="yes"/>
      <point x="15" y="642"/>
      <point x="131" y="520"/>
      <point x="350" y="520" type="curve" smooth="yes"/>
      <point x="361" y="520"/>
      <point x="372" y="520"/>
      <point x="382" y="521" type="curve"/>
      <point x="382" y="300" type="line"/>
      <point x="432" y="300" type="line"/>
      <point x="433" y="525" type="line"/>
      <point x="499" y="535"/>
      <point x="563" y="558"/>
    </contour>
  </outline>
</glyph>
<glyph name="de-cy.sc" format="1">
  <advance width="1101"/>
  <outline>
    <contour>
      <point x="521" y="-144" type="move" name="btm"/>
    </contour>
    <contour>
      <point x="400" y="1444" type="move" name="top"/>
    </contour>
    <contour>
      <point x="1120" y="67" type="curve"/>
      <point x="968" y="67" type="line"/>
      <point x="968" y="1231" type="line"/>
      <point x="1077" y="1257" type="line"/>
      <point x="1078" y="1292" type="line"/>
      <point x="327" y="1292" type="line"/>
      <point x="326" y="1257" type="line"/>
      <point x="437" y="1231" type="line"/>
      <point x="436" y="1115" type="line" smooth="yes"/>
      <point x="426" y="489"/>
      <point x="312" y="127"/>
      <point x="260" y="67" type="curve"/>
      <point x="132" y="67" type="line"/>
      <point x="125" y="-37"/>
      <point x="118" y="-200"/>
      <point x="115" y="-320" type="curve"/>
      <point x="196" y="-320" type="line"/>
      <point x="212" y="-231"/>
      <point x="239" y="-82"/>
      <point x="259" y="0" type="curve"/>
      <point x="983" y="0" type="line"/>
      <point x="987" y="-36"/>
      <point x="992" y="-229"/>
      <point x="992" y="-320" type="curve"/>
      <point x="1078" y="-320" type="line"/>
      <point x="1094" y="-220"/>
      <point x="1114" y="-25"/>
    </contour>
    <contour>
      <point x="505" y="1105" type="curve" smooth="yes"/>
      <point x="508" y="1226" type="line"/>
      <point x="814" y="1226" type="line"/>
      <point x="814" y="67" type="line"/>
      <point x="352" y="67" type="line"/>
      <point x="417" y="162"/>
      <point x="498" y="561"/>
    </contour>
  </outline>
</glyph>
<glyph name="dje-cy.sc" format="1">
  <advance width="1194"/>
  <outline>
    <contour>
      <point x="429" y="-144" type="move" name="btm"/>
    </contour>
    <contour>
      <point x="344" y="1444" type="move" name="top"/>
    </contour>
    <contour>
      <point x="524" y="659" type="curve"/>
      <point x="525" y="1244" type="line"/>
      <point x="772" y="1232" type="line"/>
      <point x="841" y="942" type="line"/>
      <point x="901" y="943" type="line"/>
      <point x="889" y="1292" type="line"/>
      <point x="-11" y="1292" type="line"/>
      <point x="-18" y="943" type="line"/>
      <point x="47" y="945" type="line"/>
      <point x="104" y="1232" type="line"/>
      <point x="369" y="1244" type="line"/>
      <point x="366" y="61" type="line"/>
      <point x="215" y="35" type="line"/>
      <point x="214" y="0" type="line"/>
      <point x="662" y="0" type="line"/>
      <point x="662" y="35" type="line"/>
      <point x="522" y="61" type="line"/>
      <point x="524" y="587" type="line"/>
      <point x="570" y="637"/>
      <point x="639" y="673"/>
      <point x="726" y="673" type="curve" smooth="yes"/>
      <point x="869" y="673"/>
      <point x="947" y="554"/>
      <point x="966" y="382" type="curve" smooth="yes"/>
      <point x="985" y="218"/>
      <point x="948" y="117"/>
      <point x="886" y="75" type="curve" smooth="yes"/>
      <point x="853" y="54"/>
      <point x="814" y="49"/>
      <point x="772" y="58" type="curve"/>
      <point x="769" y="8" type="line"/>
      <point x="786" y="1"/>
      <point x="813" y="0"/>
      <point x="831" y="0" type="curve" smooth="yes"/>
      <point x="1040" y="0"/>
      <point x="1155" y="168"/>
      <point x="1126" y="413" type="curve" smooth="yes"/>
      <point x="1101" y="633"/>
      <point x="950" y="742"/>
      <point x="762" y="742" type="curve" smooth="yes"/>
      <point x="679" y="742"/>
      <point x="585" y="716"/>
    </contour>
  </outline>
</glyph>
<glyph name="dzeabkhasian-cy.sc" format="1">
  <advance width="971"/>
  <outline>
    <contour>
      <point x="463" y="736" type="curve"/>
      <point x="867" y="1212" type="line"/>
      <point x="867" y="1292" type="line"/>
      <point x="90" y="1292" type="line"/>
      <point x="107" y="992" type="line"/>
      <point x="206" y="992" type="line"/>
      <point x="233" y="1174" type="line"/>
      <point x="684" y="1180" type="line"/>
      <point x="671" y="1164"/>
      <point x="337" y="756"/>
      <point x="315" y="728" type="curve"/>
      <point x="338" y="664" type="line"/>
      <point x="360" y="664"/>
      <point x="384" y="664"/>
      <point x="406" y="664" type="curve"/>
      <point x="661" y="654"/>
      <point x="746" y="564"/>
      <point x="746" y="392" type="curve" smooth="yes"/>
      <point x="746" y="234"/>
      <point x="627" y="86"/>
      <point x="404" y="86" type="curve" smooth="yes"/>
      <point x="295" y="86"/>
      <point x="251" y="118"/>
      <point x="237" y="126" type="curve"/>
      <point x="199" y="336" type="line"/>
      <point x="107" y="336" type="line"/>
      <point x="76" y="52" type="line"/>
      <point x="119" y="38"/>
      <point x="230" y="-12"/>
      <point x="391" y="-12" type="curve" smooth="yes"/>
      <point x="717" y="-12"/>
      <point x="910" y="156"/>
      <point x="910" y="408" type="curve" smooth="yes"/>
      <point x="910" y="628"/>
      <point x="792" y="742"/>
      <point x="570" y="742" type="curve" smooth="yes"/>
      <point x="536" y="742"/>
      <point x="494" y="740"/>
    </contour>
  </outline>
</glyph>
<glyph name="dzhe-cy.sc" format="1">
  <advance width="1000"/>
  <outline>
    <contour>
      <point x="635" y="-144" type="move" name="btm"/>
    </contour>
    <contour>
      <point x="372" y="1444" type="move" name="top"/>
    </contour>
    <contour>
      <point x="-30" y="1292" type="line"/>
      <point x="-30" y="1257" type="line"/>
      <point x="77" y="1231" type="line"/>
      <point x="74" y="61" type="line"/>
      <point x="-34" y="35" type="line"/>
      <point x="-33" y="0" type="line"/>
      <point x="408" y="0" type="line"/>
      <point x="418" y="-39"/>
      <point x="434" y="-205"/>
      <point x="436" y="-320" type="curve"/>
      <point x="515" y="-320" type="line"/>
      <point x="525" y="-231"/>
      <point x="546" y="-66"/>
      <point x="560" y="0" type="curve"/>
      <point x="977" y="0" type="line"/>
      <point x="977" y="35" type="line"/>
      <point x="862" y="61" type="line"/>
      <point x="865" y="1231" type="line"/>
      <point x="973" y="1257" type="line"/>
      <point x="973" y="1292" type="line"/>
      <point x="600" y="1292" type="line"/>
      <point x="599" y="1257" type="line"/>
      <point x="709" y="1231" type="line"/>
      <point x="707" y="66" type="line"/>
      <point x="231" y="66" type="line"/>
      <point x="233" y="1231" type="line"/>
      <point x="342" y="1257" type="line"/>
      <point x="343" y="1292" type="line"/>
    </contour>
  </outline>
</glyph>
<glyph name="e-cy.sc" format="1">
  <advance width="912"/>
  <outline>
    <contour>
      <point x="537" y="0" type="move" name="btm"/>
    </contour>
    <contour>
      <point x="511" y="1444" type="move" name="top"/>
    </contour>
    <contour>
      <point x="534" y="-7" type="curve" smooth="yes"/>
      <point x="691" y="-7"/>
      <point x="798" y="50"/>
      <point x="858" y="68" type="curve"/>
      <point x="855" y="364" type="line"/>
      <point x="781" y="364" type="line"/>
      <point x="774" y="301"/>
      <point x="768" y="195"/>
      <point x="758" y="141" type="curve"/>
      <point x="735" y="82"/>
      <point x="622" y="48"/>
      <point x="553" y="48" type="curve" smooth="yes"/>
      <point x="322" y="48"/>
      <point x="233" y="285"/>
      <point x="201" y="577" type="curve" smooth="yes"/>
      <point x="199" y="592"/>
      <point x="197" y="608"/>
      <point x="196" y="623" type="curve"/>
      <point x="349" y="614"/>
      <point x="521" y="609"/>
      <point x="674" y="607" type="curve"/>
      <point x="681" y="718" type="line"/>
      <point x="193" y="681" type="line"/>
      <point x="184" y="974"/>
      <point x="272" y="1254"/>
      <point x="509" y="1254" type="curve" smooth="yes"/>
      <point x="610" y="1254"/>
      <point x="664" y="1225"/>
      <point x="701" y="1200" type="curve"/>
      <point x="746" y="931" type="line"/>
      <point x="821" y="931" type="line"/>
      <point x="825" y="1258" type="line"/>
      <point x="765" y="1265"/>
      <point x="667" y="1309"/>
      <point x="517" y="1309" type="curve" smooth="yes"/>
      <point x="177" y="1309"/>
      <point x="-9" y="969"/>
      <point x="39" y="573" type="curve" smooth="yes"/>
      <point x="79" y="226"/>
      <point x="238" y="-7"/>
    </contour>
  </outline>
</glyph>
<glyph name="edieresis-cy.sc" format="1">
  <advance width="911"/>
  <outline>
    <contour>
      <point x="526" y="1347" type="curve"/>
      <point x="570" y="1347"/>
      <point x="608" y="1393"/>
      <point x="608" y="1451" type="curve" smooth="yes"/>
      <point x="608" y="1489"/>
      <point x="587" y="1537"/>
      <point x="538" y="1537" type="curve" smooth="yes"/>
      <point x="493" y="1537"/>
      <point x="455" y="1491"/>
      <point x="455" y="1433" type="curve" smooth="yes"/>
      <point x="455" y="1395"/>
      <point x="477" y="1347"/>
    </contour>
    <contour>
      <point x="277" y="1347" type="curve"/>
      <point x="322" y="1347"/>
      <point x="360" y="1393"/>
      <point x="360" y="1451" type="curve" smooth="yes"/>
      <point x="360" y="1489"/>
      <point x="338" y="1537"/>
      <point x="289" y="1537" type="curve" smooth="yes"/>
      <point x="245" y="1537"/>
      <point x="207" y="1491"/>
      <point x="207" y="1433" type="curve" smooth="yes"/>
      <point x="207" y="1395"/>
      <point x="229" y="1347"/>
    </contour>
    <contour>
      <point x="44" y="1240" type="curve"/>
      <point x="43" y="917" type="line"/>
      <point x="112" y="917" type="line"/>
      <point x="156" y="1171" type="line"/>
      <point x="201" y="1217"/>
      <point x="284" y="1254"/>
      <point x="363" y="1254" type="curve" smooth="yes"/>
      <point x="578" y="1254"/>
      <point x="656" y="1009"/>
      <point x="686" y="746" type="curve" smooth="yes"/>
      <point x="689" y="721"/>
      <point x="690" y="697"/>
      <point x="692" y="672" type="curve"/>
      <point x="243" y="708" type="line"/>
      <point x="237" y="592" type="line"/>
      <point x="401" y="597"/>
      <point x="547" y="605"/>
      <point x="693" y="614" type="curve"/>
      <point x="697" y="318"/>
      <point x="620" y="48"/>
      <point x="373" y="48" type="curve" smooth="yes"/>
      <point x="286" y="48"/>
      <point x="213" y="75"/>
      <point x="168" y="106" type="curve"/>
      <point x="131" y="363" type="line"/>
      <point x="64" y="363" type="line"/>
      <point x="49" y="54" type="line"/>
      <point x="127" y="24"/>
      <point x="241" y="-7"/>
      <point x="364" y="-7" type="curve" smooth="yes"/>
      <point x="741" y="-7"/>
      <point x="895" y="302"/>
      <point x="847" y="748" type="curve" smooth="yes"/>
      <point x="808" y="1098"/>
      <point x="652" y="1309"/>
      <point x="354" y="1309" type="curve" smooth="yes"/>
      <point x="218" y="1309"/>
      <point x="99" y="1265"/>
    </contour>
  </outline>
</glyph>
<glyph name="ef-cy.sc" format="1">
  <advance width="1266"/>
  <outline>
    <contour>
      <point x="642" y="-144" type="move" name="btm"/>
    </contour>
    <contour>
      <point x="633" y="1444" type="move" name="top"/>
    </contour>
    <contour>
      <point x="706" y="1148" type="curve"/>
      <point x="706" y="1288" type="line"/>
      <point x="815" y="1318" type="line"/>
      <point x="815" y="1354" type="line"/>
      <point x="447" y="1354" type="line"/>
      <point x="447" y="1318" type="line"/>
      <point x="560" y="1288" type="line"/>
      <point x="561" y="1147" type="line"/>
      <point x="223" y="1135"/>
      <point x="-8" y="991"/>
      <point x="34" y="616" type="curve" smooth="yes"/>
      <point x="69" y="309"/>
      <point x="281" y="187"/>
      <point x="562" y="172" type="curve"/>
      <point x="562" y="25" type="line"/>
      <point x="448" y="-6" type="line"/>
      <point x="448" y="-42" type="line"/>
      <point x="832" y="-42" type="line"/>
      <point x="832" y="-6" type="line"/>
      <point x="707" y="25" type="line"/>
      <point x="707" y="174" type="line"/>
      <point x="1037" y="186"/>
      <point x="1270" y="361"/>
      <point x="1228" y="737" type="curve" smooth="yes"/>
      <point x="1193" y="1038"/>
      <point x="973" y="1136"/>
    </contour>
    <contour>
      <point x="561" y="1095" type="curve"/>
      <point x="562" y="226" type="line"/>
      <point x="358" y="245"/>
      <point x="218" y="370"/>
      <point x="190" y="617" type="curve" smooth="yes"/>
      <point x="154" y="939"/>
      <point x="293" y="1082"/>
    </contour>
    <contour>
      <point x="707" y="226" type="curve"/>
      <point x="706" y="1095" type="line"/>
      <point x="907" y="1076"/>
      <point x="1045" y="969"/>
      <point x="1072" y="727" type="curve" smooth="yes"/>
      <point x="1109" y="403"/>
      <point x="974" y="246"/>
    </contour>
  </outline>
</glyph>
<glyph name="el-cy.sc" format="1">
  <advance width="1088"/>
  <outline>
    <contour>
      <point x="500" y="-144" type="move" name="btm"/>
    </contour>
    <contour>
      <point x="356" y="1444" type="move" name="top"/>
    </contour>
    <contour>
      <point x="492" y="999" type="curve" smooth="yes"/>
      <point x="495" y="1226" type="line"/>
      <point x="802" y="1226" type="line"/>
      <point x="800" y="61" type="line"/>
      <point x="680" y="35" type="line"/>
      <point x="679" y="0" type="line"/>
      <point x="1070" y="0" type="line"/>
      <point x="1070" y="35" type="line"/>
      <point x="955" y="61" type="line"/>
      <point x="958" y="1231" type="line"/>
      <point x="1066" y="1257" type="line"/>
      <point x="1066" y="1292" type="line"/>
      <point x="310" y="1292" type="line"/>
      <point x="310" y="1256" type="line"/>
      <point x="425" y="1226" type="line"/>
      <point x="421" y="976" type="line" smooth="yes"/>
      <point x="415" y="688"/>
      <point x="400" y="475"/>
      <point x="368" y="337" type="curve" smooth="yes"/>
      <point x="339" y="200"/>
      <point x="296" y="137"/>
      <point x="232" y="137" type="curve" smooth="yes"/>
      <point x="197" y="137"/>
      <point x="164" y="146"/>
      <point x="135" y="159" type="curve"/>
      <point x="122" y="11" type="line"/>
      <point x="151" y="-6"/>
      <point x="190" y="-16"/>
      <point x="230" y="-16" type="curve" smooth="yes"/>
      <point x="329" y="-16"/>
      <point x="386" y="65"/>
      <point x="423" y="185" type="curve" smooth="yes"/>
      <point x="480" y="380"/>
      <point x="484" y="689"/>
    </contour>
  </outline>
</glyph>
<glyph name="eldescender-cy.sc" format="1">
  <advance width="1140"/>
  <outline>
    <contour>
      <point x="469" y="-144" type="move" name="btm"/>
    </contour>
    <contour>
      <point x="588" y="1444" type="move" name="top"/>
    </contour>
    <contour>
      <point x="942" y="1231" type="line"/>
      <point x="1050" y="1257" type="line"/>
      <point x="1051" y="1292" type="line"/>
      <point x="294" y="1292" type="line"/>
      <point x="294" y="1256" type="line"/>
      <point x="410" y="1226" type="line"/>
      <point x="405" y="976" type="line" smooth="yes"/>
      <point x="399" y="688"/>
      <point x="385" y="475"/>
      <point x="351" y="337" type="curve" smooth="yes"/>
      <point x="322" y="200"/>
      <point x="280" y="137"/>
      <point x="216" y="137" type="curve" smooth="yes"/>
      <point x="180" y="137"/>
      <point x="149" y="146"/>
      <point x="119" y="159" type="curve"/>
      <point x="106" y="11" type="line"/>
      <point x="135" y="-6"/>
      <point x="174" y="-16"/>
      <point x="214" y="-16" type="curve" smooth="yes"/>
      <point x="313" y="-16"/>
      <point x="370" y="65"/>
      <point x="407" y="185" type="curve" smooth="yes"/>
      <point x="465" y="380"/>
      <point x="468" y="689"/>
      <point x="475" y="999" type="curve" smooth="yes"/>
      <point x="480" y="1226" type="line"/>
      <point x="786" y="1226" type="line"/>
      <point x="783" y="61" type="line"/>
      <point x="664" y="35" type="line"/>
      <point x="664" y="0" type="line"/>
      <point x="962" y="0" type="line"/>
      <point x="966" y="-36"/>
      <point x="971" y="-229"/>
      <point x="972" y="-320" type="curve"/>
      <point x="1057" y="-320" type="line"/>
      <point x="1073" y="-220"/>
      <point x="1093" y="-25"/>
      <point x="1099" y="67" type="curve"/>
      <point x="939" y="67" type="line"/>
    </contour>
  </outline>
</glyph>
<glyph name="elhook-cy.sc" format="1">
  <advance width="1191"/>
  <outline>
    <contour>
      <point x="933" y="79" type="curve" smooth="yes"/>
      <point x="954" y="172"/>
      <point x="953" y="699"/>
      <point x="938" y="1226" type="curve"/>
      <point x="1046" y="1256" type="line"/>
      <point x="1046" y="1292" type="line"/>
      <point x="297" y="1292" type="line"/>
      <point x="297" y="1256" type="line"/>
      <point x="412" y="1226" type="line"/>
      <point x="408" y="976" type="line" smooth="yes"/>
      <point x="401" y="688"/>
      <point x="388" y="475"/>
      <point x="355" y="337" type="curve" smooth="yes"/>
      <point x="325" y="200"/>
      <point x="283" y="137"/>
      <point x="219" y="137" type="curve" smooth="yes"/>
      <point x="183" y="137"/>
      <point x="152" y="146"/>
      <point x="122" y="159" type="curve"/>
      <point x="109" y="11" type="line"/>
      <point x="138" y="-6"/>
      <point x="177" y="-16"/>
      <point x="217" y="-16" type="curve" smooth="yes"/>
      <point x="316" y="-16"/>
      <point x="373" y="65"/>
      <point x="410" y="185" type="curve" smooth="yes"/>
      <point x="467" y="380"/>
      <point x="471" y="689"/>
      <point x="478" y="999" type="curve" smooth="yes"/>
      <point x="483" y="1226" type="line"/>
      <point x="788" y="1226" type="line"/>
      <point x="805" y="711"/>
      <point x="802" y="215"/>
      <point x="785" y="93" type="curve" smooth="yes"/>
      <point x="766" y="-62"/>
      <point x="719" y="-174"/>
      <point x="551" y="-231" type="curve"/>
      <point x="576" y="-274" type="line"/>
      <point x="770" y="-227"/>
      <point x="904" y="-136"/>
    </contour>
  </outline>
</glyph>
<glyph name="eltail-cy.sc" format="1">
  <advance width="1098"/>
  <outline>
    <contour>
      <point x="561" y="-144" type="move" name="btm"/>
    </contour>
    <contour>
      <point x="419" y="1444" type="move" name="top"/>
    </contour>
    <contour>
      <point x="1066" y="21" type="curve"/>
      <point x="1066" y="36" type="line"/>
      <point x="939" y="67" type="line"/>
      <point x="942" y="1231" type="line"/>
      <point x="1050" y="1257" type="line"/>
      <point x="1050" y="1292" type="line"/>
      <point x="294" y="1292" type="line"/>
      <point x="294" y="1256" type="line"/>
      <point x="409" y="1226" type="line"/>
      <point x="405" y="976" type="line" smooth="yes"/>
      <point x="399" y="688"/>
      <point x="384" y="475"/>
      <point x="351" y="337" type="curve" smooth="yes"/>
      <point x="322" y="200"/>
      <point x="280" y="137"/>
      <point x="216" y="137" type="curve" smooth="yes"/>
      <point x="180" y="137"/>
      <point x="148" y="146"/>
      <point x="119" y="159" type="curve"/>
      <point x="106" y="11" type="line"/>
      <point x="135" y="-6"/>
      <point x="173" y="-16"/>
      <point x="213" y="-16" type="curve" smooth="yes"/>
      <point x="312" y="-16"/>
      <point x="369" y="65"/>
      <point x="407" y="185" type="curve" smooth="yes"/>
      <point x="464" y="380"/>
      <point x="468" y="689"/>
      <point x="474" y="999" type="curve" smooth="yes"/>
      <point x="479" y="1226" type="line"/>
      <point x="786" y="1226" type="line"/>
      <point x="783" y="61" type="line"/>
      <point x="664" y="35" type="line"/>
      <point x="663" y="0" type="line"/>
      <point x="927" y="0" type="line"/>
      <point x="921" y="-77"/>
      <point x="866" y="-203"/>
      <point x="784" y="-287" type="curve"/>
      <point x="845" y="-324" type="line"/>
      <point x="946" y="-268"/>
      <point x="1050" y="-132"/>
    </contour>
  </outline>
</glyph>
<glyph name="enhook-cy.sc" format="1">
  <advance width="1170"/>
  <outline>
    <contour>
      <point x="580" y="-144" type="move" name="btm"/>
    </contour>
    <contour>
      <point x="386" y="1444" type="move" name="top"/>
    </contour>
    <contour>
      <point x="795" y="686" type="curve"/>
      <point x="283" y="686" type="line"/>
      <point x="284" y="1231" type="line"/>
      <point x="394" y="1257" type="line"/>
      <point x="395" y="1292" type="line"/>
      <point x="21" y="1292" type="line"/>
      <point x="20" y="1257" type="line"/>
      <point x="128" y="1231" type="line"/>
      <point x="125" y="61" type="line"/>
      <point x="17" y="35" type="line"/>
      <point x="16" y="0" type="line"/>
      <point x="397" y="0" type="line"/>
      <point x="397" y="35" type="line"/>
      <point x="281" y="61" type="line"/>
      <point x="282" y="622" type="line"/>
      <point x="796" y="622" type="line"/>
      <point x="799" y="397"/>
      <point x="799" y="173"/>
      <point x="783" y="76" type="curve" smooth="yes"/>
      <point x="760" y="-107"/>
      <point x="680" y="-203"/>
      <point x="547" y="-249" type="curve"/>
      <point x="570" y="-292" type="line"/>
      <point x="755" y="-253"/>
      <point x="911" y="-150"/>
      <point x="937" y="66" type="curve" smooth="yes"/>
      <point x="959" y="226"/>
      <point x="942" y="627"/>
      <point x="929" y="1231" type="curve"/>
      <point x="1037" y="1257" type="line"/>
      <point x="1038" y="1292" type="line"/>
      <point x="668" y="1292" type="line"/>
      <point x="667" y="1257" type="line"/>
      <point x="776" y="1231" type="line"/>
      <point x="779" y="1169"/>
      <point x="789" y="931"/>
    </contour>
  </outline>
</glyph>
<glyph name="enlefthook-cy.sc" format="1">
  <advance width="1223"/>
  <outline>
    <contour>
      <point x="394" y="622" type="curve"/>
      <point x="908" y="622" type="line"/>
      <point x="906" y="61" type="line"/>
      <point x="797" y="35" type="line"/>
      <point x="796" y="0" type="line"/>
      <point x="1176" y="0" type="line"/>
      <point x="1177" y="35" type="line"/>
      <point x="1062" y="61" type="line"/>
      <point x="1065" y="1231" type="line"/>
      <point x="1173" y="1257" type="line"/>
      <point x="1173" y="1292" type="line"/>
      <point x="801" y="1292" type="line"/>
      <point x="800" y="1257" type="line"/>
      <point x="909" y="1231" type="line"/>
      <point x="908" y="686" type="line"/>
      <point x="394" y="686" type="line"/>
      <point x="394" y="686"/>
      <point x="389" y="1226"/>
      <point x="389" y="1226" type="curve"/>
      <point x="497" y="1256" type="line"/>
      <point x="498" y="1292" type="line"/>
      <point x="122" y="1292" type="line"/>
      <point x="120" y="1256" type="line"/>
      <point x="237" y="1226" type="line"/>
      <point x="238" y="1226"/>
      <point x="247" y="696"/>
      <point x="247" y="696" type="curve" smooth="yes"/>
      <point x="252" y="416"/>
      <point x="248" y="207"/>
      <point x="225" y="75" type="curve" smooth="yes"/>
      <point x="198" y="-106"/>
      <point x="121" y="-203"/>
      <point x="-12" y="-249" type="curve"/>
      <point x="10" y="-292" type="line"/>
      <point x="192" y="-253"/>
      <point x="353" y="-150"/>
      <point x="382" y="66" type="curve" smooth="yes"/>
      <point x="396" y="164"/>
      <point x="397" y="353"/>
    </contour>
  </outline>
</glyph>
<glyph name="ereversed-cy.sc" format="1">
  <advance width="911"/>
  <outline>
    <contour>
      <point x="408" y="1292" type="move" name="top"/>
    </contour>
    <contour>
      <point x="44" y="1240" type="curve"/>
      <point x="43" y="917" type="line"/>
      <point x="112" y="917" type="line"/>
      <point x="156" y="1171" type="line"/>
      <point x="201" y="1217"/>
      <point x="284" y="1254"/>
      <point x="363" y="1254" type="curve" smooth="yes"/>
      <point x="578" y="1254"/>
      <point x="656" y="1009"/>
      <point x="686" y="746" type="curve" smooth="yes"/>
      <point x="689" y="721"/>
      <point x="690" y="697"/>
      <point x="692" y="672" type="curve"/>
      <point x="243" y="708" type="line"/>
      <point x="237" y="592" type="line"/>
      <point x="401" y="597"/>
      <point x="547" y="605"/>
      <point x="693" y="614" type="curve"/>
      <point x="697" y="318"/>
      <point x="620" y="48"/>
      <point x="373" y="48" type="curve" smooth="yes"/>
      <point x="286" y="48"/>
      <point x="213" y="75"/>
      <point x="168" y="106" type="curve"/>
      <point x="131" y="363" type="line"/>
      <point x="64" y="363" type="line"/>
      <point x="49" y="54" type="line"/>
      <point x="127" y="24"/>
      <point x="241" y="-7"/>
      <point x="364" y="-7" type="curve" smooth="yes"/>
      <point x="741" y="-7"/>
      <point x="895" y="302"/>
      <point x="847" y="748" type="curve" smooth="yes"/>
      <point x="808" y="1098"/>
      <point x="652" y="1309"/>
      <point x="354" y="1309" type="curve" smooth="yes"/>
      <point x="218" y="1309"/>
      <point x="99" y="1265"/>
    </contour>
  </outline>
</glyph>
<glyph name="ge-cy.sc" format="1">
  <advance width="834"/>
  <outline>
    <contour>
      <point x="374" y="1292" type="move" name="top"/>
    </contour>
    <contour>
      <point x="453" y="648" type="move" name="center"/>
    </contour>
    <contour>
      <point x="139" y="0" type="move" name="bottomright"/>
    </contour>
    <contour>
      <point x="16" y="1292" type="line"/>
      <point x="16" y="1257" type="line"/>
      <point x="123" y="1231" type="line"/>
      <point x="120" y="61" type="line"/>
      <point x="13" y="35" type="line"/>
      <point x="12" y="0" type="line"/>
      <point x="446" y="0" type="line"/>
      <point x="446" y="33" type="line"/>
      <point x="276" y="61" type="line"/>
      <point x="279" y="1226" type="line"/>
      <point x="579" y="1210" type="line"/>
      <point x="631" y="892" type="line"/>
      <point x="690" y="894" type="line"/>
      <point x="684" y="1292" type="line"/>
    </contour>
  </outline>
</glyph>
<glyph name="gedescender-cy.sc" format="1">
  <advance width="864"/>
  <outline>
    <contour>
      <point x="460" y="67" type="curve"/>
      <point x="257" y="67" type="line"/>
      <point x="259" y="1226" type="line"/>
      <point x="559" y="1210" type="line"/>
      <point x="611" y="892" type="line"/>
      <point x="671" y="894" type="line"/>
      <point x="664" y="1292" type="line"/>
      <point x="-3" y="1292" type="line"/>
      <point x="-4" y="1257" type="line"/>
      <point x="104" y="1231" type="line"/>
      <point x="101" y="61" type="line"/>
      <point x="-7" y="35" type="line"/>
      <point x="-7" y="0" type="line"/>
      <point x="323" y="0" type="line"/>
      <point x="327" y="-36"/>
      <point x="332" y="-229"/>
      <point x="333" y="-320" type="curve"/>
      <point x="418" y="-320" type="line"/>
      <point x="435" y="-220"/>
      <point x="455" y="-25"/>
    </contour>
  </outline>
</glyph>
<glyph name="gestrokehook-cy.sc" format="1">
  <advance width="834"/>
  <outline>
    <contour>
      <point x="333" y="-416" type="curve" smooth="yes"/>
      <point x="467" y="-416"/>
      <point x="516" y="-293"/>
      <point x="498" y="-135" type="curve" smooth="yes"/>
      <point x="489" y="-60"/>
      <point x="462" y="0"/>
      <point x="438" y="36" type="curve"/>
      <point x="252" y="67" type="line"/>
      <point x="253" y="608" type="line"/>
      <point x="497" y="608" type="line"/>
      <point x="498" y="667" type="line"/>
      <point x="253" y="666" type="line"/>
      <point x="253" y="1226" type="line"/>
      <point x="554" y="1210" type="line"/>
      <point x="607" y="892" type="line"/>
      <point x="667" y="894" type="line"/>
      <point x="659" y="1292" type="line"/>
      <point x="-10" y="1292" type="line"/>
      <point x="-10" y="1256" type="line"/>
      <point x="102" y="1226" type="line"/>
      <point x="102" y="666" type="line"/>
      <point x="-27" y="666" type="line"/>
      <point x="-28" y="608" type="line"/>
      <point x="102" y="608" type="line"/>
      <point x="101" y="67" type="line"/>
      <point x="-13" y="36" type="line"/>
      <point x="-13" y="0" type="line"/>
      <point x="403" y="0" type="line"/>
      <point x="420" y="-35"/>
      <point x="432" y="-78"/>
      <point x="437" y="-119" type="curve" smooth="yes"/>
      <point x="449" y="-229"/>
      <point x="403" y="-288"/>
      <point x="311" y="-288" type="curve" smooth="yes"/>
      <point x="275" y="-288"/>
      <point x="244" y="-280"/>
      <point x="226" y="-270" type="curve"/>
      <point x="228" y="-387" type="line"/>
      <point x="250" y="-401"/>
      <point x="288" y="-416"/>
    </contour>
  </outline>
</glyph>
<glyph name="ghemiddlehook-cy.sc" format="1">
  <advance width="858"/>
  <outline>
    <contour>
      <point x="258" y="638" type="curve"/>
      <point x="261" y="1226" type="line"/>
      <point x="600" y="1210" type="line"/>
      <point x="649" y="922" type="line"/>
      <point x="709" y="924" type="line"/>
      <point x="705" y="1292" type="line"/>
      <point x="-2" y="1292" type="line"/>
      <point x="-3" y="1257" type="line"/>
      <point x="105" y="1231" type="line"/>
      <point x="102" y="61" type="line"/>
      <point x="-6" y="35" type="line"/>
      <point x="-7" y="0" type="line"/>
      <point x="427" y="0" type="line"/>
      <point x="428" y="35" type="line"/>
      <point x="258" y="61" type="line"/>
      <point x="259" y="562" type="line"/>
      <point x="302" y="615"/>
      <point x="373" y="670"/>
      <point x="458" y="670" type="curve" smooth="yes"/>
      <point x="600" y="670"/>
      <point x="651" y="543"/>
      <point x="671" y="370" type="curve" smooth="yes"/>
      <point x="703" y="90"/>
      <point x="654" y="-229"/>
      <point x="417" y="-229" type="curve" smooth="yes"/>
      <point x="396" y="-229"/>
      <point x="369" y="-226"/>
      <point x="352" y="-219" type="curve"/>
      <point x="352" y="-279" type="line"/>
      <point x="371" y="-288"/>
      <point x="399" y="-292"/>
      <point x="428" y="-292" type="curve" smooth="yes"/>
      <point x="732" y="-292"/>
      <point x="871" y="32"/>
      <point x="829" y="384" type="curve" smooth="yes"/>
      <point x="800" y="621"/>
      <point x="707" y="744"/>
      <point x="506" y="744" type="curve" smooth="yes"/>
      <point x="406" y="744"/>
      <point x="313" y="697"/>
    </contour>
  </outline>
</glyph>
<glyph name="ghestroke-cy.sc" format="1">
  <advance width="851"/>
  <outline>
    <contour>
      <point x="37" y="1292" type="line"/>
      <point x="36" y="1257" type="line"/>
      <point x="144" y="1231" type="line"/>
      <point x="142" y="666" type="line"/>
      <point x="13" y="666" type="line"/>
      <point x="12" y="608" type="line"/>
      <point x="142" y="608" type="line"/>
      <point x="141" y="61" type="line"/>
      <point x="33" y="35" type="line"/>
      <point x="32" y="0" type="line"/>
      <point x="466" y="0" type="line"/>
      <point x="467" y="33" type="line"/>
      <point x="296" y="61" type="line"/>
      <point x="298" y="608" type="line"/>
      <point x="537" y="608" type="line"/>
      <point x="538" y="667" type="line"/>
      <point x="298" y="666" type="line"/>
      <point x="299" y="1226" type="line"/>
      <point x="599" y="1210" type="line"/>
      <point x="651" y="892" type="line"/>
      <point x="711" y="894" type="line"/>
      <point x="704" y="1292" type="line"/>
    </contour>
  </outline>
</glyph>
<glyph name="gheupturn-cy.sc" format="1">
  <advance width="809"/>
  <outline>
    <contour>
      <point x="409" y="-144" type="move" name="btm"/>
    </contour>
    <contour>
      <point x="589" y="-144" type="move" name="mark0"/>
    </contour>
    <contour>
      <point x="651" y="1602" type="line"/>
      <point x="585" y="1292" type="line"/>
      <point x="33" y="1292" type="line"/>
      <point x="33" y="1257" type="line"/>
      <point x="140" y="1231" type="line"/>
      <point x="138" y="61" type="line"/>
      <point x="30" y="35" type="line"/>
      <point x="30" y="0" type="line"/>
      <point x="463" y="0" type="line"/>
      <point x="463" y="33" type="line"/>
      <point x="293" y="61" type="line"/>
      <point x="296" y="1226" type="line"/>
      <point x="708" y="1198" type="line"/>
      <point x="718" y="1602" type="line"/>
    </contour>
  </outline>
</glyph>
<glyph name="gje-cy.sc" format="1">
  <advance width="834"/>
  <outline>
    <contour>
      <point x="323" y="1335" type="line"/>
      <point x="413" y="1415"/>
      <point x="529" y="1554"/>
      <point x="583" y="1666" type="curve"/>
      <point x="489" y="1731" type="line"/>
      <point x="285" y="1364" type="line"/>
    </contour>
    <contour>
      <point x="16" y="1292" type="line"/>
      <point x="16" y="1257" type="line"/>
      <point x="123" y="1231" type="line"/>
      <point x="120" y="61" type="line"/>
      <point x="13" y="35" type="line"/>
      <point x="12" y="0" type="line"/>
      <point x="446" y="0" type="line"/>
      <point x="446" y="33" type="line"/>
      <point x="276" y="61" type="line"/>
      <point x="279" y="1226" type="line"/>
      <point x="579" y="1210" type="line"/>
      <point x="631" y="892" type="line"/>
      <point x="690" y="894" type="line"/>
      <point x="684" y="1292" type="line"/>
    </contour>
  </outline>
</glyph>
<glyph name="haabkhasian-cy.sc" format="1">
  <advance width="1245"/>
  <outline>
    <contour>
      <point x="582" y="1292" type="move" name="top"/>
    </contour>
    <contour>
      <point x="606" y="-7" type="curve" smooth="yes"/>
      <point x="701" y="-7"/>
      <point x="798" y="14"/>
      <point x="877" y="77" type="curve"/>
      <point x="811" y="63" type="line"/>
      <point x="884" y="16"/>
      <point x="978" y="-7"/>
      <point x="1056" y="-7" type="curve" smooth="yes"/>
      <point x="1109" y="-7"/>
      <point x="1160" y="1"/>
      <point x="1183" y="13" type="curve"/>
      <point x="1189" y="67" type="line"/>
      <point x="1159" y="55"/>
      <point x="1127" y="48"/>
      <point x="1071" y="48" type="curve" smooth="yes"/>
      <point x="1001" y="48"/>
      <point x="925" y="73"/>
      <point x="876" y="104" type="curve"/>
      <point x="895" y="90" type="line"/>
      <point x="1111" y="243"/>
      <point x="1221" y="494"/>
      <point x="1190" y="759" type="curve" smooth="yes"/>
      <point x="1166" y="967"/>
      <point x="1044" y="1096"/>
      <point x="865" y="1096" type="curve" smooth="yes"/>
      <point x="610" y="1096"/>
      <point x="476" y="849"/>
      <point x="511" y="551" type="curve" smooth="yes"/>
      <point x="536" y="336"/>
      <point x="646" y="166"/>
      <point x="806" y="67" type="curve"/>
      <point x="813" y="103" type="line"/>
      <point x="770" y="78"/>
      <point x="712" y="67"/>
      <point x="645" y="67" type="curve" smooth="yes"/>
      <point x="409" y="67"/>
      <point x="277" y="284"/>
      <point x="245" y="568" type="curve" smooth="yes"/>
      <point x="206" y="903"/>
      <point x="314" y="1257"/>
      <point x="595" y="1257" type="curve" smooth="yes"/>
      <point x="689" y="1257"/>
      <point x="737" y="1224"/>
      <point x="775" y="1189" type="curve"/>
      <point x="801" y="1229" type="line"/>
      <point x="754" y="1276"/>
      <point x="686" y="1309"/>
      <point x="584" y="1309" type="curve" smooth="yes"/>
      <point x="231" y="1309"/>
      <point x="37" y="978"/>
      <point x="86" y="568" type="curve" smooth="yes"/>
      <point x="126" y="228"/>
      <point x="315" y="-7"/>
    </contour>
    <contour>
      <point x="850" y="1042" type="curve" smooth="yes"/>
      <point x="972" y="1042"/>
      <point x="1022" y="907"/>
      <point x="1039" y="757" type="curve" smooth="yes"/>
      <point x="1068" y="509"/>
      <point x="1000" y="238"/>
      <point x="835" y="121" type="curve"/>
      <point x="881" y="104" type="line"/>
      <point x="770" y="176"/>
      <point x="685" y="334"/>
      <point x="661" y="542" type="curve" smooth="yes"/>
      <point x="637" y="754"/>
      <point x="676" y="1042"/>
    </contour>
  </outline>
</glyph>
<glyph name="hadescender-cy.sc" format="1">
  <advance width="886"/>
  <outline>
    <contour>
      <point x="409" y="-144" type="move" name="btm"/>
    </contour>
    <contour>
      <point x="411" y="1444" type="move" name="top"/>
    </contour>
    <contour>
      <point x="940" y="67" type="curve"/>
      <point x="778" y="67" type="line"/>
      <point x="453" y="679" type="line"/>
      <point x="770" y="1239" type="line"/>
      <point x="881" y="1264" type="line"/>
      <point x="880" y="1292" type="line"/>
      <point x="552" y="1292" type="line"/>
      <point x="551" y="1264" type="line"/>
      <point x="684" y="1237" type="line"/>
      <point x="426" y="729" type="line"/>
      <point x="190" y="1239" type="line"/>
      <point x="316" y="1264" type="line"/>
      <point x="317" y="1292" type="line"/>
      <point x="-89" y="1292" type="line"/>
      <point x="-90" y="1264" type="line"/>
      <point x="20" y="1237" type="line"/>
      <point x="333" y="614" type="line"/>
      <point x="24" y="53" type="line"/>
      <point x="-85" y="29" type="line"/>
      <point x="-83" y="0" type="line"/>
      <point x="248" y="0" type="line"/>
      <point x="248" y="29" type="line"/>
      <point x="113" y="55" type="line"/>
      <point x="362" y="561" type="line"/>
      <point x="609" y="53" type="line"/>
      <point x="485" y="29" type="line"/>
      <point x="485" y="0" type="line"/>
      <point x="804" y="0" type="line"/>
      <point x="807" y="-36"/>
      <point x="813" y="-229"/>
      <point x="813" y="-320" type="curve"/>
      <point x="898" y="-320" type="line"/>
      <point x="915" y="-220"/>
      <point x="935" y="-25"/>
    </contour>
  </outline>
</glyph>
<glyph name="hahook-cy.sc" format="1">
  <advance width="928"/>
  <outline>
    <contour>
      <point x="459" y="678" type="curve"/>
      <point x="777" y="1239" type="line"/>
      <point x="888" y="1264" type="line"/>
      <point x="886" y="1292" type="line"/>
      <point x="558" y="1292" type="line"/>
      <point x="558" y="1264" type="line"/>
      <point x="690" y="1237" type="line"/>
      <point x="433" y="729" type="line"/>
      <point x="197" y="1239" type="line"/>
      <point x="323" y="1264" type="line"/>
      <point x="323" y="1292" type="line"/>
      <point x="-83" y="1292" type="line"/>
      <point x="-83" y="1264" type="line"/>
      <point x="26" y="1237" type="line"/>
      <point x="340" y="614" type="line"/>
      <point x="31" y="53" type="line"/>
      <point x="-79" y="29" type="line"/>
      <point x="-77" y="0" type="line"/>
      <point x="254" y="0" type="line"/>
      <point x="254" y="29" type="line"/>
      <point x="120" y="55" type="line"/>
      <point x="368" y="562" type="line"/>
      <point x="523" y="235"/>
      <point x="626" y="39"/>
      <point x="638" y="-64" type="curve" smooth="yes"/>
      <point x="652" y="-179"/>
      <point x="586" y="-273"/>
      <point x="491" y="-273" type="curve"/>
      <point x="504" y="-308" type="line"/>
      <point x="713" y="-308"/>
      <point x="796" y="-179"/>
      <point x="775" y="-8" type="curve" smooth="yes"/>
      <point x="760" y="118"/>
      <point x="671" y="275"/>
    </contour>
  </outline>
</glyph>
<glyph name="hardsign-cy.sc" format="1">
  <advance width="1073"/>
  <outline>
    <contour>
      <point x="434" y="-144" type="move" name="btm"/>
    </contour>
    <contour>
      <point x="300" y="1444" type="move" name="top"/>
    </contour>
    <contour>
      <point x="473" y="762" type="curve"/>
      <point x="475" y="1231" type="line"/>
      <point x="584" y="1257" type="line"/>
      <point x="585" y="1292" type="line"/>
      <point x="-46" y="1292" type="line"/>
      <point x="-41" y="915" type="line"/>
      <point x="23" y="915" type="line"/>
      <point x="63" y="1216" type="line"/>
      <point x="319" y="1226" type="line"/>
      <point x="316" y="61" type="line"/>
      <point x="208" y="35" type="line"/>
      <point x="208" y="0" type="line"/>
      <point x="382" y="0" type="line" smooth="yes"/>
      <point x="467" y="0"/>
      <point x="564" y="-14"/>
      <point x="638" y="-14" type="curve" smooth="yes"/>
      <point x="901" y="-14"/>
      <point x="1086" y="119"/>
      <point x="1050" y="429" type="curve" smooth="yes"/>
      <point x="1020" y="682"/>
      <point x="847" y="781"/>
      <point x="631" y="781" type="curve" smooth="yes"/>
      <point x="562" y="781"/>
      <point x="507" y="771"/>
    </contour>
    <contour>
      <point x="472" y="61" type="curve"/>
      <point x="474" y="700" type="line"/>
      <point x="505" y="710"/>
      <point x="550" y="720"/>
      <point x="597" y="720" type="curve" smooth="yes"/>
      <point x="767" y="720"/>
      <point x="865" y="626"/>
      <point x="888" y="419" type="curve" smooth="yes"/>
      <point x="915" y="179"/>
      <point x="839" y="36"/>
      <point x="642" y="36" type="curve" smooth="yes"/>
      <point x="570" y="36"/>
      <point x="511" y="51"/>
    </contour>
  </outline>
</glyph>
<glyph name="ia-cy.sc" format="1">
  <advance width="995"/>
  <outline>
    <contour>
      <point x="596" y="-144" type="move" name="btm"/>
    </contour>
    <contour>
      <point x="656" y="1444" type="move" name="top"/>
    </contour>
    <contour>
      <point x="775" y="593" type="curve"/>
      <point x="774" y="61" type="line"/>
      <point x="623" y="35" type="line"/>
      <point x="622" y="0" type="line"/>
      <point x="1044" y="0" type="line"/>
      <point x="1045" y="35" type="line"/>
      <point x="930" y="61" type="line"/>
      <point x="932" y="1231" type="line"/>
      <point x="1040" y="1257" type="line"/>
      <point x="1040" y="1292" type="line"/>
      <point x="861" y="1292" type="line" smooth="yes"/>
      <point x="785" y="1292"/>
      <point x="690" y="1306"/>
      <point x="619" y="1306" type="curve" smooth="yes"/>
      <point x="375" y="1306"/>
      <point x="198" y="1169"/>
      <point x="231" y="882" type="curve" smooth="yes"/>
      <point x="249" y="724"/>
      <point x="364" y="602"/>
      <point x="526" y="602" type="curve"/>
      <point x="324" y="533"/>
      <point x="211" y="66"/>
      <point x="121" y="45" type="curve" smooth="yes"/>
      <point x="81" y="35" type="line"/>
      <point x="81" y="0" type="line"/>
      <point x="304" y="0" type="line" smooth="yes"/>
      <point x="371" y="0"/>
      <point x="487" y="535"/>
      <point x="622" y="592" type="curve"/>
      <point x="677" y="592"/>
      <point x="705" y="592"/>
    </contour>
    <contour>
      <point x="776" y="1241" type="curve"/>
      <point x="775" y="649" type="line"/>
      <point x="750" y="646"/>
      <point x="680" y="643"/>
      <point x="622" y="643" type="curve" smooth="yes"/>
      <point x="484" y="643"/>
      <point x="407" y="747"/>
      <point x="389" y="907" type="curve" smooth="yes"/>
      <point x="365" y="1126"/>
      <point x="454" y="1252"/>
      <point x="639" y="1252" type="curve" smooth="yes"/>
      <point x="685" y="1252"/>
      <point x="745" y="1247"/>
    </contour>
  </outline>
</glyph>
<glyph name="idieresis-cy.sc" format="1">
  <advance width="1092"/>
  <outline>
    <contour>
      <point x="664" y="1347" type="curve"/>
      <point x="708" y="1347"/>
      <point x="746" y="1393"/>
      <point x="746" y="1451" type="curve" smooth="yes"/>
      <point x="746" y="1489"/>
      <point x="724" y="1537"/>
      <point x="676" y="1537" type="curve" smooth="yes"/>
      <point x="631" y="1537"/>
      <point x="593" y="1491"/>
      <point x="593" y="1433" type="curve" smooth="yes"/>
      <point x="593" y="1395"/>
      <point x="615" y="1347"/>
    </contour>
    <contour>
      <point x="415" y="1347" type="curve"/>
      <point x="460" y="1347"/>
      <point x="498" y="1393"/>
      <point x="498" y="1451" type="curve" smooth="yes"/>
      <point x="498" y="1489"/>
      <point x="476" y="1537"/>
      <point x="427" y="1537" type="curve" smooth="yes"/>
      <point x="383" y="1537"/>
      <point x="345" y="1491"/>
      <point x="345" y="1433" type="curve" smooth="yes"/>
      <point x="345" y="1395"/>
      <point x="367" y="1347"/>
    </contour>
    <contour>
      <point x="15" y="1292" type="line"/>
      <point x="14" y="1257" type="line"/>
      <point x="122" y="1231" type="line"/>
      <point x="119" y="61" type="line"/>
      <point x="11" y="35" type="line"/>
      <point x="10" y="0" type="line"/>
      <point x="390" y="0" type="line"/>
      <point x="391" y="35" type="line"/>
      <point x="275" y="61" type="line"/>
      <point x="275" y="142" type="line"/>
      <point x="737" y="886" type="line"/>
      <point x="806" y="993" type="line"/>
      <point x="804" y="61" type="line"/>
      <point x="695" y="35" type="line"/>
      <point x="694" y="0" type="line"/>
      <point x="1074" y="0" type="line"/>
      <point x="1075" y="35" type="line"/>
      <point x="960" y="61" type="line"/>
      <point x="963" y="1231" type="line"/>
      <point x="1070" y="1257" type="line"/>
      <point x="1071" y="1292" type="line"/>
      <point x="698" y="1292" type="line"/>
      <point x="698" y="1257" type="line"/>
      <point x="807" y="1231" type="line"/>
      <point x="807" y="1086" type="line"/>
      <point x="359" y="357" type="line"/>
      <point x="275" y="235" type="line"/>
      <point x="278" y="1231" type="line"/>
      <point x="388" y="1257" type="line"/>
      <point x="389" y="1292" type="line"/>
    </contour>
  </outline>
</glyph>
<glyph name="ii-cy.sc" format="1">
  <advance width="1092"/>
  <outline>
    <contour>
      <point x="546" y="1292" type="move" name="top"/>
    </contour>
    <contour>
      <point x="1164" y="0" type="move" name="bottomright"/>
    </contour>
    <contour>
      <point x="15" y="1292" type="line"/>
      <point x="14" y="1257" type="line"/>
      <point x="122" y="1231" type="line"/>
      <point x="119" y="61" type="line"/>
      <point x="11" y="35" type="line"/>
      <point x="10" y="0" type="line"/>
      <point x="390" y="0" type="line"/>
      <point x="391" y="35" type="line"/>
      <point x="275" y="61" type="line"/>
      <point x="275" y="142" type="line"/>
      <point x="737" y="886" type="line"/>
      <point x="806" y="993" type="line"/>
      <point x="804" y="61" type="line"/>
      <point x="695" y="35" type="line"/>
      <point x="694" y="0" type="line"/>
      <point x="1074" y="0" type="line"/>
      <point x="1075" y="35" type="line"/>
      <point x="960" y="61" type="line"/>
      <point x="963" y="1231" type="line"/>
      <point x="1070" y="1257" type="line"/>
      <point x="1071" y="1292" type="line"/>
      <point x="698" y="1292" type="line"/>
      <point x="698" y="1257" type="line"/>
      <point x="807" y="1231" type="line"/>
      <point x="807" y="1086" type="line"/>
      <point x="359" y="357" type="line"/>
      <point x="275" y="235" type="line"/>
      <point x="278" y="1231" type="line"/>
      <point x="388" y="1257" type="line"/>
      <point x="389" y="1292" type="line"/>
    </contour>
  </outline>
</glyph>
<glyph name="iishort-cy.sc" format="1">
  <advance width="1092"/>
  <outline>
    <contour>
      <point x="369" y="1642" type="curve" smooth="yes"/>
      <point x="270" y="1642" type="line"/>
      <point x="270" y="1630"/>
      <point x="268" y="1618"/>
      <point x="268" y="1608" type="curve" smooth="yes"/>
      <point x="268" y="1412"/>
      <point x="379" y="1300"/>
      <point x="549" y="1300" type="curve" smooth="yes"/>
      <point x="723" y="1300"/>
      <point x="827" y="1410"/>
      <point x="827" y="1608" type="curve" smooth="yes"/>
      <point x="827" y="1618"/>
      <point x="826" y="1630"/>
      <point x="825" y="1642" type="curve"/>
      <point x="726" y="1642" type="line" smooth="yes"/>
      <point x="701" y="1642"/>
      <point x="697" y="1608"/>
      <point x="697" y="1574" type="curve" smooth="yes"/>
      <point x="697" y="1478"/>
      <point x="650" y="1350"/>
      <point x="551" y="1350" type="curve" smooth="yes"/>
      <point x="448" y="1350"/>
      <point x="398" y="1478"/>
      <point x="398" y="1574" type="curve" smooth="yes"/>
      <point x="398" y="1608"/>
      <point x="394" y="1642"/>
    </contour>
    <contour>
      <point x="15" y="1292" type="line"/>
      <point x="14" y="1257" type="line"/>
      <point x="122" y="1231" type="line"/>
      <point x="119" y="61" type="line"/>
      <point x="11" y="35" type="line"/>
      <point x="10" y="0" type="line"/>
      <point x="390" y="0" type="line"/>
      <point x="391" y="35" type="line"/>
      <point x="275" y="61" type="line"/>
      <point x="275" y="142" type="line"/>
      <point x="737" y="886" type="line"/>
      <point x="806" y="993" type="line"/>
      <point x="804" y="61" type="line"/>
      <point x="695" y="35" type="line"/>
      <point x="694" y="0" type="line"/>
      <point x="1074" y="0" type="line"/>
      <point x="1075" y="35" type="line"/>
      <point x="960" y="61" type="line"/>
      <point x="963" y="1231" type="line"/>
      <point x="1070" y="1257" type="line"/>
      <point x="1071" y="1292" type="line"/>
      <point x="698" y="1292" type="line"/>
      <point x="698" y="1257" type="line"/>
      <point x="807" y="1231" type="line"/>
      <point x="807" y="1086" type="line"/>
      <point x="359" y="357" type="line"/>
      <point x="275" y="235" type="line"/>
      <point x="278" y="1231" type="line"/>
      <point x="388" y="1257" type="line"/>
      <point x="389" y="1292" type="line"/>
    </contour>
  </outline>
</glyph>
<glyph name="imacron-cy.sc" format="1">
  <advance width="1092"/>
  <outline>
    <contour>
      <point x="733" y="1465" type="line"/>
      <point x="358" y="1465" type="line"/>
      <point x="358" y="1369" type="line"/>
      <point x="733" y="1369" type="line"/>
    </contour>
    <contour>
      <point x="15" y="1292" type="line"/>
      <point x="14" y="1257" type="line"/>
      <point x="122" y="1231" type="line"/>
      <point x="119" y="61" type="line"/>
      <point x="11" y="35" type="line"/>
      <point x="10" y="0" type="line"/>
      <point x="390" y="0" type="line"/>
      <point x="391" y="35" type="line"/>
      <point x="275" y="61" type="line"/>
      <point x="275" y="142" type="line"/>
      <point x="737" y="886" type="line"/>
      <point x="806" y="993" type="line"/>
      <point x="804" y="61" type="line"/>
      <point x="695" y="35" type="line"/>
      <point x="694" y="0" type="line"/>
      <point x="1074" y="0" type="line"/>
      <point x="1075" y="35" type="line"/>
      <point x="960" y="61" type="line"/>
      <point x="963" y="1231" type="line"/>
      <point x="1070" y="1257" type="line"/>
      <point x="1071" y="1292" type="line"/>
      <point x="698" y="1292" type="line"/>
      <point x="698" y="1257" type="line"/>
      <point x="807" y="1231" type="line"/>
      <point x="807" y="1086" type="line"/>
      <point x="359" y="357" type="line"/>
      <point x="275" y="235" type="line"/>
      <point x="278" y="1231" type="line"/>
      <point x="388" y="1257" type="line"/>
      <point x="389" y="1292" type="line"/>
    </contour>
  </outline>
</glyph>
<glyph name="iu-cy.sc" format="1">
  <advance width="1500"/>
  <outline>
    <contour>
      <point x="594" y="1444" type="move" name="top"/>
    </contour>
    <contour>
      <point x="541" y="695" type="curve"/>
      <point x="285" y="695" type="line"/>
      <point x="289" y="1231" type="line"/>
      <point x="402" y="1257" type="line"/>
      <point x="401" y="1292" type="line"/>
      <point x="23" y="1292" type="line"/>
      <point x="24" y="1257" type="line"/>
      <point x="135" y="1231" type="line"/>
      <point x="126" y="61" type="line"/>
      <point x="14" y="35" type="line"/>
      <point x="15" y="0" type="line"/>
      <point x="401" y="0" type="line"/>
      <point x="400" y="35" type="line"/>
      <point x="280" y="61" type="line"/>
      <point x="284" y="631" type="line"/>
      <point x="543" y="631" type="line"/>
      <point x="544" y="604"/>
      <point x="545" y="576"/>
      <point x="548" y="548" type="curve" smooth="yes"/>
      <point x="586" y="189"/>
      <point x="759" y="-20"/>
      <point x="1015" y="-20" type="curve" smooth="yes"/>
      <point x="1345" y="-20"/>
      <point x="1509" y="317"/>
      <point x="1465" y="740" type="curve" smooth="yes"/>
      <point x="1427" y="1099"/>
      <point x="1255" y="1308"/>
      <point x="998" y="1308" type="curve" smooth="yes"/>
      <point x="711" y="1308"/>
      <point x="546" y="1046"/>
    </contour>
    <contour>
      <point x="1020" y="31" type="curve" smooth="yes"/>
      <point x="845" y="31"/>
      <point x="740" y="269"/>
      <point x="709" y="551" type="curve" smooth="yes"/>
      <point x="670" y="925"/>
      <point x="779" y="1257"/>
      <point x="993" y="1257" type="curve" smooth="yes"/>
      <point x="1168" y="1257"/>
      <point x="1273" y="1020"/>
      <point x="1304" y="736" type="curve" smooth="yes"/>
      <point x="1344" y="363"/>
      <point x="1235" y="31"/>
    </contour>
  </outline>
</glyph>
<glyph name="izhitsa-cy.sc" format="1">
  <advance width="1005"/>
  <outline>
    <contour>
      <point x="537" y="-144" type="move" name="btm"/>
    </contour>
    <contour>
      <point x="309" y="1444" type="move" name="top"/>
    </contour>
    <contour>
      <point x="621" y="1023" type="curve" smooth="yes"/>
      <point x="500" y="394" type="line"/>
      <point x="455" y="129" type="line"/>
      <point x="422" y="268" type="line"/>
      <point x="163" y="1226" type="line"/>
      <point x="315" y="1256" type="line"/>
      <point x="317" y="1292" type="line"/>
      <point x="-89" y="1292" type="line"/>
      <point x="-88" y="1256" type="line"/>
      <point x="6" y="1230" type="line"/>
      <point x="361" y="-18" type="line"/>
      <point x="481" y="-10" type="line"/>
      <point x="692" y="920" type="line" smooth="yes"/>
      <point x="725" y="1073"/>
      <point x="755" y="1184"/>
      <point x="878" y="1184" type="curve" smooth="yes"/>
      <point x="893" y="1184"/>
      <point x="914" y="1182"/>
      <point x="928" y="1176" type="curve"/>
      <point x="925" y="1283" type="line"/>
      <point x="909" y="1291"/>
      <point x="884" y="1297"/>
      <point x="846" y="1297" type="curve" smooth="yes"/>
      <point x="704" y="1297"/>
      <point x="653" y="1189"/>
    </contour>
  </outline>
</glyph>
<glyph name="ka-cy.sc" format="1">
  <advance width="849"/>
  <outline>
    <contour>
      <point x="436" y="1292" type="move" name="top"/>
    </contour>
    <contour>
      <point x="378" y="638" type="line"/>
      <point x="767" y="1234" type="line"/>
      <point x="878" y="1256" type="line"/>
      <point x="879" y="1292" type="line"/>
      <point x="514" y="1292" type="line"/>
      <point x="513" y="1256" type="line"/>
      <point x="671" y="1229" type="line"/>
      <point x="353" y="703" type="line"/>
      <point x="220" y="704" type="line"/>
      <point x="222" y="1231" type="line"/>
      <point x="332" y="1257" type="line"/>
      <point x="333" y="1292" type="line"/>
      <point x="-41" y="1292" type="line"/>
      <point x="-42" y="1257" type="line"/>
      <point x="66" y="1231" type="line"/>
      <point x="63" y="61" type="line"/>
      <point x="-45" y="35" type="line"/>
      <point x="-46" y="0" type="line"/>
      <point x="348" y="0" type="line"/>
      <point x="349" y="35" type="line"/>
      <point x="219" y="61" type="line"/>
      <point x="220" y="633" type="line"/>
      <point x="307" y="633" type="line" smooth="yes"/>
      <point x="437" y="633"/>
      <point x="629" y="0"/>
      <point x="715" y="0" type="curve" smooth="yes"/>
      <point x="914" y="0" type="line"/>
      <point x="915" y="35" type="line"/>
      <point x="846" y="56" type="line" smooth="yes"/>
      <point x="740" y="83"/>
      <point x="558" y="718"/>
      <point x="376" y="698" type="curve"/>
    </contour>
  </outline>
</glyph>
<glyph name="kabashkir-cy.sc" format="1">
  <advance width="1124"/>
  <outline>
    <contour>
      <point x="828" y="-144" type="move" name="btm"/>
    </contour>
    <contour>
      <point x="607" y="1444" type="move" name="top"/>
    </contour>
    <contour>
      <point x="694" y="693" type="curve"/>
      <point x="1042" y="1234" type="line"/>
      <point x="1153" y="1256" type="line"/>
      <point x="1154" y="1292" type="line"/>
      <point x="789" y="1292" type="line"/>
      <point x="788" y="1256" type="line"/>
      <point x="946" y="1229" type="line"/>
      <point x="628" y="703" type="line"/>
      <point x="495" y="704" type="line"/>
      <point x="497" y="1231" type="line"/>
      <point x="606" y="1257" type="line"/>
      <point x="607" y="1292" type="line"/>
      <point x="-23" y="1292" type="line"/>
      <point x="-19" y="915" type="line"/>
      <point x="45" y="915" type="line"/>
      <point x="85" y="1216" type="line"/>
      <point x="341" y="1226" type="line"/>
      <point x="338" y="61" type="line"/>
      <point x="230" y="35" type="line"/>
      <point x="229" y="0" type="line"/>
      <point x="623" y="0" type="line"/>
      <point x="624" y="35" type="line"/>
      <point x="494" y="61" type="line"/>
      <point x="495" y="633" type="line"/>
      <point x="582" y="633" type="line" smooth="yes"/>
      <point x="712" y="633"/>
      <point x="904" y="0"/>
      <point x="991" y="0" type="curve" smooth="yes"/>
      <point x="1189" y="0" type="line"/>
      <point x="1190" y="35" type="line"/>
      <point x="1121" y="56" type="line" smooth="yes"/>
      <point x="1024" y="81"/>
      <point x="859" y="631"/>
    </contour>
  </outline>
</glyph>
<glyph name="kadescender-cy.sc" format="1">
  <advance width="920"/>
  <outline>
    <contour>
      <point x="-65" y="0" type="line"/>
      <point x="329" y="0" type="line"/>
      <point x="329" y="35" type="line"/>
      <point x="199" y="61" type="line"/>
      <point x="201" y="633" type="line"/>
      <point x="288" y="633" type="line" smooth="yes"/>
      <point x="418" y="633"/>
      <point x="610" y="0"/>
      <point x="697" y="0" type="curve" smooth="yes"/>
      <point x="820" y="0" type="line"/>
      <point x="824" y="-36"/>
      <point x="829" y="-229"/>
      <point x="829" y="-320" type="curve"/>
      <point x="915" y="-320" type="line"/>
      <point x="931" y="-220"/>
      <point x="951" y="-25"/>
      <point x="956" y="67" type="curve"/>
      <point x="811" y="67" type="line"/>
      <point x="706" y="155"/>
      <point x="537" y="700"/>
      <point x="361" y="699" type="curve"/>
      <point x="359" y="638" type="line"/>
      <point x="748" y="1234" type="line"/>
      <point x="859" y="1256" type="line"/>
      <point x="859" y="1292" type="line"/>
      <point x="495" y="1292" type="line"/>
      <point x="494" y="1256" type="line"/>
      <point x="652" y="1229" type="line"/>
      <point x="333" y="703" type="line"/>
      <point x="200" y="704" type="line"/>
      <point x="202" y="1231" type="line"/>
      <point x="312" y="1257" type="line"/>
      <point x="313" y="1292" type="line"/>
      <point x="-61" y="1292" type="line"/>
      <point x="-62" y="1257" type="line"/>
      <point x="46" y="1231" type="line"/>
      <point x="43" y="61" type="line"/>
      <point x="-65" y="35" type="line"/>
    </contour>
  </outline>
</glyph>
<glyph name="kahook-cy.sc" format="1">
  <advance width="902"/>
  <outline>
    <contour>
      <point x="525" y="-144" type="move" name="btm"/>
    </contour>
    <contour>
      <point x="307" y="1444" type="move" name="top"/>
    </contour>
    <contour>
      <point x="203" y="638" type="curve"/>
      <point x="205" y="1231" type="line"/>
      <point x="314" y="1257" type="line"/>
      <point x="315" y="1292" type="line"/>
      <point x="-58" y="1292" type="line"/>
      <point x="-59" y="1257" type="line"/>
      <point x="49" y="1231" type="line"/>
      <point x="46" y="61" type="line"/>
      <point x="-62" y="35" type="line"/>
      <point x="-63" y="0" type="line"/>
      <point x="330" y="0" type="line"/>
      <point x="331" y="35" type="line"/>
      <point x="202" y="61" type="line"/>
      <point x="203" y="580" type="line"/>
      <point x="251" y="614"/>
      <point x="331" y="640"/>
      <point x="405" y="640" type="curve" smooth="yes"/>
      <point x="560" y="640"/>
      <point x="629" y="530"/>
      <point x="650" y="340" type="curve" smooth="yes"/>
      <point x="682" y="70"/>
      <point x="623" y="-229"/>
      <point x="393" y="-229" type="curve" smooth="yes"/>
      <point x="372" y="-229"/>
      <point x="345" y="-226"/>
      <point x="328" y="-219" type="curve"/>
      <point x="329" y="-279" type="line"/>
      <point x="347" y="-288"/>
      <point x="375" y="-292"/>
      <point x="404" y="-292" type="curve" smooth="yes"/>
      <point x="703" y="-292"/>
      <point x="849" y="8"/>
      <point x="808" y="354" type="curve" smooth="yes"/>
      <point x="777" y="609"/>
      <point x="658" y="721"/>
      <point x="427" y="713" type="curve"/>
      <point x="750" y="1234" type="line"/>
      <point x="860" y="1256" type="line"/>
      <point x="862" y="1292" type="line"/>
      <point x="497" y="1292" type="line"/>
      <point x="496" y="1256" type="line"/>
      <point x="654" y="1229" type="line"/>
      <point x="346" y="701" type="line"/>
      <point x="290" y="687"/>
      <point x="239" y="664"/>
    </contour>
  </outline>
</glyph>
<glyph name="kastroke-cy.sc" format="1">
  <advance width="949"/>
  <outline>
    <contour>
      <point x="630" y="-144" type="move" name="btm"/>
    </contour>
    <contour>
      <point x="407" y="1444" type="move" name="top"/>
    </contour>
    <contour>
      <point x="480" y="693" type="curve"/>
      <point x="828" y="1234" type="line"/>
      <point x="939" y="1256" type="line"/>
      <point x="940" y="1292" type="line"/>
      <point x="576" y="1292" type="line"/>
      <point x="574" y="1256" type="line"/>
      <point x="733" y="1229" type="line"/>
      <point x="414" y="703" type="line"/>
      <point x="281" y="704" type="line"/>
      <point x="282" y="923" type="line"/>
      <point x="402" y="923" type="line"/>
      <point x="401" y="982" type="line"/>
      <point x="282" y="982" type="line"/>
      <point x="283" y="1231" type="line"/>
      <point x="393" y="1257" type="line"/>
      <point x="394" y="1292" type="line"/>
      <point x="20" y="1292" type="line"/>
      <point x="19" y="1257" type="line"/>
      <point x="127" y="1231" type="line"/>
      <point x="126" y="982" type="line"/>
      <point x="-1" y="982" type="line"/>
      <point x="-1" y="923" type="line"/>
      <point x="126" y="923" type="line"/>
      <point x="124" y="61" type="line"/>
      <point x="16" y="35" type="line"/>
      <point x="16" y="0" type="line"/>
      <point x="410" y="0" type="line"/>
      <point x="410" y="35" type="line"/>
      <point x="280" y="61" type="line"/>
      <point x="282" y="633" type="line"/>
      <point x="369" y="633" type="line" smooth="yes"/>
      <point x="499" y="633"/>
      <point x="690" y="0"/>
      <point x="777" y="0" type="curve" smooth="yes"/>
      <point x="976" y="0" type="line"/>
      <point x="976" y="35" type="line"/>
      <point x="907" y="56" type="line" smooth="yes"/>
      <point x="810" y="81"/>
      <point x="646" y="631"/>
    </contour>
  </outline>
</glyph>
<glyph name="kaverticalstroke-cy.sc" format="1">
  <advance width="884"/>
  <outline>
    <contour>
      <point x="442" y="693" type="curve"/>
      <point x="790" y="1234" type="line"/>
      <point x="901" y="1256" type="line"/>
      <point x="902" y="1292" type="line"/>
      <point x="538" y="1292" type="line"/>
      <point x="536" y="1256" type="line"/>
      <point x="695" y="1229" type="line"/>
      <point x="376" y="703" type="line"/>
      <point x="337" y="703" type="line"/>
      <point x="337" y="956" type="line"/>
      <point x="288" y="956" type="line"/>
      <point x="287" y="704" type="line"/>
      <point x="220" y="704" type="line"/>
      <point x="222" y="1231" type="line"/>
      <point x="332" y="1257" type="line"/>
      <point x="333" y="1292" type="line"/>
      <point x="-41" y="1292" type="line"/>
      <point x="-42" y="1257" type="line"/>
      <point x="66" y="1231" type="line"/>
      <point x="63" y="61" type="line"/>
      <point x="-45" y="35" type="line"/>
      <point x="-46" y="0" type="line"/>
      <point x="348" y="0" type="line"/>
      <point x="349" y="35" type="line"/>
      <point x="219" y="61" type="line"/>
      <point x="220" y="633" type="line"/>
      <point x="288" y="633" type="line"/>
      <point x="287" y="397" type="line"/>
      <point x="337" y="397" type="line"/>
      <point x="337" y="633" type="line"/>
      <point x="340" y="633" type="line"/>
      <point x="454" y="633"/>
      <point x="655" y="0"/>
      <point x="739" y="0" type="curve" smooth="yes"/>
      <point x="937" y="0" type="line"/>
      <point x="938" y="35" type="line"/>
      <point x="869" y="56" type="line" smooth="yes"/>
      <point x="772" y="81"/>
      <point x="608" y="631"/>
    </contour>
  </outline>
</glyph>
<glyph name="komide-cy.sc" format="1">
  <advance width="943"/>
  <outline>
    <contour>
      <point x="375" y="1444" type="move" name="top"/>
    </contour>
    <contour>
      <point x="753" y="0" type="curve" smooth="yes"/>
      <point x="925" y="0" type="line"/>
      <point x="925" y="36" type="line"/>
      <point x="804" y="67" type="line"/>
      <point x="804" y="1226" type="line"/>
      <point x="911" y="1256" type="line"/>
      <point x="911" y="1292" type="line"/>
      <point x="539" y="1292" type="line"/>
      <point x="539" y="1256" type="line"/>
      <point x="653" y="1226" type="line"/>
      <point x="653" y="747" type="line"/>
      <point x="611" y="758"/>
      <point x="541" y="770"/>
      <point x="480" y="770" type="curve" smooth="yes"/>
      <point x="206" y="770"/>
      <point x="38" y="637"/>
      <point x="76" y="312" type="curve" smooth="yes"/>
      <point x="105" y="62"/>
      <point x="263" y="-18"/>
      <point x="477" y="-18" type="curve" smooth="yes"/>
      <point x="574" y="-18"/>
      <point x="662" y="0"/>
    </contour>
    <contour>
      <point x="653" y="687" type="curve"/>
      <point x="652" y="65" type="line"/>
      <point x="613" y="48"/>
      <point x="560" y="35"/>
      <point x="478" y="35" type="curve" smooth="yes"/>
      <point x="326" y="35"/>
      <point x="249" y="137"/>
      <point x="229" y="322" type="curve" smooth="yes"/>
      <point x="200" y="577"/>
      <point x="277" y="710"/>
      <point x="487" y="710" type="curve" smooth="yes"/>
      <point x="542" y="710"/>
      <point x="612" y="700"/>
    </contour>
  </outline>
</glyph>
<glyph name="komidje-cy.sc" format="1">
  <advance width="1305"/>
  <outline>
    <contour>
      <point x="353" y="1444" type="move" name="top"/>
    </contour>
    <contour>
      <point x="1130" y="388" type="curve" smooth="yes"/>
      <point x="1130" y="209"/>
      <point x="1106" y="33"/>
      <point x="966" y="33" type="curve" smooth="yes"/>
      <point x="827" y="33"/>
      <point x="802" y="211"/>
      <point x="802" y="390" type="curve" smooth="yes"/>
      <point x="802" y="1226" type="line"/>
      <point x="911" y="1256" type="line"/>
      <point x="911" y="1292" type="line"/>
      <point x="539" y="1292" type="line"/>
      <point x="539" y="1256" type="line"/>
      <point x="653" y="1226" type="line"/>
      <point x="653" y="747" type="line"/>
      <point x="611" y="759"/>
      <point x="551" y="770"/>
      <point x="489" y="770" type="curve" smooth="yes"/>
      <point x="280" y="770"/>
      <point x="70" y="625"/>
      <point x="70" y="374" type="curve" smooth="yes"/>
      <point x="70" y="122"/>
      <point x="233" y="-18"/>
      <point x="464" y="-18" type="curve" smooth="yes"/>
      <point x="558" y="-18"/>
      <point x="678" y="-1"/>
      <point x="765" y="33" type="curve"/>
      <point x="813" y="3"/>
      <point x="887" y="-18"/>
      <point x="961" y="-18" type="curve" smooth="yes"/>
      <point x="1173" y="-18"/>
      <point x="1252" y="157"/>
      <point x="1250" y="398" type="curve" smooth="yes"/>
      <point x="1250" y="398"/>
      <point x="1247" y="562"/>
      <point x="1247" y="588" type="curve"/>
      <point x="1353" y="618" type="line"/>
      <point x="1353" y="654" type="line"/>
      <point x="1014" y="654" type="line"/>
      <point x="1014" y="618" type="line"/>
      <point x="1127" y="588" type="line"/>
      <point x="1129" y="458"/>
      <point x="1130" y="410"/>
    </contour>
    <contour>
      <point x="478" y="35" type="curve" smooth="yes"/>
      <point x="299" y="35"/>
      <point x="222" y="175"/>
      <point x="222" y="379" type="curve" smooth="yes"/>
      <point x="222" y="569"/>
      <point x="331" y="710"/>
      <point x="498" y="710" type="curve" smooth="yes"/>
      <point x="552" y="710"/>
      <point x="612" y="700"/>
      <point x="653" y="687" type="curve"/>
      <point x="653" y="65" type="line"/>
      <point x="613" y="48"/>
      <point x="560" y="35"/>
    </contour>
  </outline>
</glyph>
<glyph name="komidzje-cy.sc" format="1">
  <advance width="614"/>
  <outline>
    <contour>
      <point x="357" y="-144" type="move" name="btm"/>
    </contour>
    <contour>
      <point x="159" y="1444" type="move" name="top"/>
    </contour>
    <contour>
      <point x="473" y="0" type="curve" smooth="yes"/>
      <point x="533" y="0" type="line"/>
      <point x="537" y="-36"/>
      <point x="542" y="-229"/>
      <point x="543" y="-320" type="curve"/>
      <point x="631" y="-320" type="line"/>
      <point x="647" y="-220"/>
      <point x="667" y="-25"/>
      <point x="672" y="67" type="curve"/>
      <point x="600" y="88" type="line" smooth="yes"/>
      <point x="555" y="101"/>
      <point x="505" y="213"/>
      <point x="450" y="330" type="curve" smooth="yes"/>
      <point x="396" y="453"/>
      <point x="335" y="581"/>
      <point x="287" y="604" type="curve"/>
      <point x="471" y="682"/>
      <point x="526" y="835"/>
      <point x="505" y="1016" type="curve" smooth="yes"/>
      <point x="477" y="1266"/>
      <point x="301" y="1306"/>
      <point x="80" y="1306" type="curve" smooth="yes"/>
      <point x="15" y="1306"/>
      <point x="-43" y="1302"/>
      <point x="-78" y="1298" type="curve"/>
      <point x="-78" y="1233" type="line"/>
      <point x="-30" y="1239"/>
      <point x="22" y="1242"/>
      <point x="73" y="1242" type="curve" smooth="yes"/>
      <point x="230" y="1242"/>
      <point x="325" y="1197"/>
      <point x="346" y="1007" type="curve" smooth="yes"/>
      <point x="370" y="805"/>
      <point x="278" y="664"/>
      <point x="118" y="650" type="curve" smooth="yes"/>
      <point x="74" y="647"/>
      <point x="-45" y="646"/>
      <point x="-67" y="650" type="curve"/>
      <point x="-66" y="578" type="line"/>
      <point x="6" y="576"/>
      <point x="129" y="576"/>
      <point x="175" y="580" type="curve"/>
      <point x="240" y="544"/>
      <point x="404" y="0"/>
    </contour>
  </outline>
</glyph>
<glyph name="komilje-cy.sc" format="1">
  <advance width="1446"/>
  <outline>
    <contour>
      <point x="662" y="-144" type="move" name="btm"/>
    </contour>
    <contour>
      <point x="520" y="1444" type="move" name="top"/>
    </contour>
    <contour>
      <point x="969" y="390" type="curve" smooth="yes"/>
      <point x="971" y="1231" type="line"/>
      <point x="1079" y="1257" type="line"/>
      <point x="1078" y="1292" type="line"/>
      <point x="322" y="1292" type="line"/>
      <point x="322" y="1256" type="line"/>
      <point x="438" y="1226" type="line"/>
      <point x="434" y="976" type="line" smooth="yes"/>
      <point x="427" y="688"/>
      <point x="413" y="475"/>
      <point x="380" y="337" type="curve" smooth="yes"/>
      <point x="351" y="200"/>
      <point x="308" y="137"/>
      <point x="244" y="137" type="curve" smooth="yes"/>
      <point x="208" y="137"/>
      <point x="177" y="146"/>
      <point x="147" y="159" type="curve"/>
      <point x="135" y="11" type="line"/>
      <point x="163" y="-6"/>
      <point x="202" y="-16"/>
      <point x="242" y="-16" type="curve" smooth="yes"/>
      <point x="341" y="-16"/>
      <point x="398" y="65"/>
      <point x="436" y="185" type="curve" smooth="yes"/>
      <point x="492" y="380"/>
      <point x="497" y="689"/>
      <point x="503" y="999" type="curve" smooth="yes"/>
      <point x="508" y="1226" type="line"/>
      <point x="814" y="1226" type="line"/>
      <point x="813" y="376" type="line" smooth="yes"/>
      <point x="812" y="128"/>
      <point x="910" y="-18"/>
      <point x="1124" y="-18" type="curve" smooth="yes"/>
      <point x="1342" y="-18"/>
      <point x="1421" y="173"/>
      <point x="1415" y="431" type="curve" smooth="yes"/>
      <point x="1411" y="588" type="line"/>
      <point x="1292" y="588" type="line"/>
      <point x="1295" y="425" type="line" smooth="yes"/>
      <point x="1298" y="234"/>
      <point x="1280" y="33"/>
      <point x="1130" y="33" type="curve" smooth="yes"/>
      <point x="990" y="33"/>
      <point x="968" y="215"/>
    </contour>
  </outline>
</glyph>
<glyph name="kominje-cy.sc" format="1">
  <advance width="1429"/>
  <outline>
    <contour>
      <point x="936" y="390" type="curve" smooth="yes"/>
      <point x="938" y="1231" type="line"/>
      <point x="1045" y="1257" type="line"/>
      <point x="1045" y="1292" type="line"/>
      <point x="673" y="1292" type="line"/>
      <point x="673" y="1257" type="line"/>
      <point x="782" y="1231" type="line"/>
      <point x="780" y="686" type="line"/>
      <point x="275" y="686" type="line"/>
      <point x="276" y="1231" type="line"/>
      <point x="386" y="1257" type="line"/>
      <point x="386" y="1292" type="line"/>
      <point x="12" y="1292" type="line"/>
      <point x="12" y="1257" type="line"/>
      <point x="120" y="1231" type="line"/>
      <point x="117" y="61" type="line"/>
      <point x="9" y="35" type="line"/>
      <point x="9" y="0" type="line"/>
      <point x="389" y="0" type="line"/>
      <point x="389" y="35" type="line"/>
      <point x="273" y="61" type="line"/>
      <point x="275" y="622" type="line"/>
      <point x="780" y="622" type="line"/>
      <point x="780" y="376" type="line" smooth="yes"/>
      <point x="780" y="128"/>
      <point x="877" y="-18"/>
      <point x="1091" y="-18" type="curve" smooth="yes"/>
      <point x="1310" y="-18"/>
      <point x="1389" y="173"/>
      <point x="1382" y="431" type="curve" smooth="yes"/>
      <point x="1379" y="588" type="line"/>
      <point x="1259" y="588" type="line"/>
      <point x="1262" y="425" type="line" smooth="yes"/>
      <point x="1266" y="234"/>
      <point x="1247" y="33"/>
      <point x="1097" y="33" type="curve" smooth="yes"/>
      <point x="956" y="33"/>
      <point x="935" y="210"/>
    </contour>
  </outline>
</glyph>
<glyph name="komisje-cy.sc" format="1">
  <advance width="932"/>
  <outline>
    <contour>
      <point x="896" y="627" type="curve"/>
      <point x="565" y="627" type="line"/>
      <point x="564" y="567" type="line"/>
      <point x="753" y="550" type="line"/>
      <point x="752" y="407" type="line" smooth="yes"/>
      <point x="753" y="200"/>
      <point x="691" y="48"/>
      <point x="524" y="48" type="curve" smooth="yes"/>
      <point x="309" y="48"/>
      <point x="228" y="272"/>
      <point x="199" y="537" type="curve" smooth="yes"/>
      <point x="157" y="887"/>
      <point x="241" y="1254"/>
      <point x="525" y="1254" type="curve" smooth="yes"/>
      <point x="639" y="1254"/>
      <point x="718" y="1189"/>
      <point x="731" y="1180" type="curve"/>
      <point x="765" y="976" type="line"/>
      <point x="836" y="976" type="line"/>
      <point x="845" y="1248" type="line"/>
      <point x="793" y="1261"/>
      <point x="688" y="1309"/>
      <point x="533" y="1309" type="curve" smooth="yes"/>
      <point x="164" y="1309"/>
      <point x="-16" y="970"/>
      <point x="35" y="533" type="curve" smooth="yes"/>
      <point x="73" y="208"/>
      <point x="240" y="-7"/>
      <point x="519" y="-7" type="curve" smooth="yes"/>
      <point x="752" y="-7"/>
      <point x="889" y="142"/>
      <point x="895" y="415" type="curve" smooth="yes"/>
      <point x="896" y="432"/>
      <point x="897" y="606"/>
    </contour>
  </outline>
</glyph>
<glyph name="komitje-cy.sc" format="1">
  <advance width="1070"/>
  <outline>
    <contour>
      <point x="546" y="-144" type="move" name="btm"/>
    </contour>
    <contour>
      <point x="331" y="1444" type="move" name="top"/>
    </contour>
    <contour>
      <point x="502" y="390" type="curve" smooth="yes"/>
      <point x="505" y="1244" type="line"/>
      <point x="751" y="1232" type="line"/>
      <point x="822" y="942" type="line"/>
      <point x="883" y="943" type="line"/>
      <point x="868" y="1292" type="line"/>
      <point x="-29" y="1292" type="line"/>
      <point x="-37" y="943" type="line"/>
      <point x="27" y="945" type="line"/>
      <point x="87" y="1232" type="line"/>
      <point x="347" y="1244" type="line"/>
      <point x="345" y="376" type="line" smooth="yes"/>
      <point x="344" y="128"/>
      <point x="448" y="-18"/>
      <point x="660" y="-18" type="curve" smooth="yes"/>
      <point x="880" y="-18"/>
      <point x="964" y="173"/>
      <point x="957" y="431" type="curve" smooth="yes"/>
      <point x="954" y="588" type="line"/>
      <point x="830" y="588" type="line"/>
      <point x="833" y="425" type="line" smooth="yes"/>
      <point x="836" y="234"/>
      <point x="815" y="33"/>
      <point x="666" y="33" type="curve" smooth="yes"/>
      <point x="524" y="33"/>
      <point x="502" y="211"/>
    </contour>
  </outline>
</glyph>
<glyph name="komizje-cy.sc" format="1">
  <advance width="1018"/>
  <outline>
    <contour>
      <point x="905" y="588" type="line"/>
      <point x="908" y="425" type="line" smooth="yes"/>
      <point x="912" y="234"/>
      <point x="893" y="33"/>
      <point x="743" y="33" type="curve" smooth="yes"/>
      <point x="640" y="33"/>
      <point x="596" y="105"/>
      <point x="510" y="314" type="curve" smooth="yes"/>
      <point x="442" y="468"/>
      <point x="406" y="556"/>
      <point x="357" y="596" type="curve"/>
      <point x="541" y="674"/>
      <point x="590" y="835"/>
      <point x="568" y="1016" type="curve" smooth="yes"/>
      <point x="540" y="1266"/>
      <point x="355" y="1306"/>
      <point x="143" y="1306" type="curve" smooth="yes"/>
      <point x="78" y="1306"/>
      <point x="19" y="1302"/>
      <point x="-15" y="1298" type="curve"/>
      <point x="-17" y="1233" type="line"/>
      <point x="31" y="1239"/>
      <point x="85" y="1242"/>
      <point x="136" y="1242" type="curve" smooth="yes"/>
      <point x="295" y="1242"/>
      <point x="388" y="1197"/>
      <point x="410" y="1007" type="curve" smooth="yes"/>
      <point x="433" y="805"/>
      <point x="352" y="662"/>
      <point x="184" y="650" type="curve" smooth="yes"/>
      <point x="144" y="647"/>
      <point x="19" y="646"/>
      <point x="-4" y="650" type="curve"/>
      <point x="-3" y="578" type="line"/>
      <point x="68" y="576"/>
      <point x="188" y="576"/>
      <point x="241" y="580" type="curve"/>
      <point x="283" y="535"/>
      <point x="324" y="459"/>
      <point x="421" y="216" type="curve" smooth="yes"/>
      <point x="498" y="20"/>
      <point x="610" y="-18"/>
      <point x="736" y="-18" type="curve" smooth="yes"/>
      <point x="955" y="-18"/>
      <point x="1035" y="173"/>
      <point x="1028" y="431" type="curve" smooth="yes"/>
      <point x="1025" y="588" type="line"/>
    </contour>
  </outline>
</glyph>
<glyph name="lje-cy.sc" format="1">
  <advance width="1550"/>
  <outline>
    <contour>
      <point x="594" y="-144" type="move" name="btm"/>
    </contour>
    <contour>
      <point x="598" y="1444" type="move" name="top"/>
    </contour>
    <contour>
      <point x="958" y="762" type="curve"/>
      <point x="958" y="1226" type="line"/>
      <point x="1065" y="1256" type="line"/>
      <point x="1065" y="1292" type="line"/>
      <point x="312" y="1292" type="line"/>
      <point x="312" y="1256" type="line"/>
      <point x="427" y="1226" type="line"/>
      <point x="423" y="976" type="line" smooth="yes"/>
      <point x="416" y="688"/>
      <point x="402" y="475"/>
      <point x="369" y="337" type="curve" smooth="yes"/>
      <point x="340" y="200"/>
      <point x="298" y="137"/>
      <point x="234" y="137" type="curve" smooth="yes"/>
      <point x="198" y="137"/>
      <point x="166" y="146"/>
      <point x="137" y="159" type="curve"/>
      <point x="124" y="11" type="line"/>
      <point x="153" y="-6"/>
      <point x="192" y="-16"/>
      <point x="232" y="-16" type="curve" smooth="yes"/>
      <point x="331" y="-16"/>
      <point x="387" y="65"/>
      <point x="425" y="185" type="curve" smooth="yes"/>
      <point x="482" y="380"/>
      <point x="486" y="689"/>
      <point x="493" y="999" type="curve" smooth="yes"/>
      <point x="497" y="1226" type="line"/>
      <point x="803" y="1226" type="line"/>
      <point x="801" y="61" type="line"/>
      <point x="686" y="35" type="line"/>
      <point x="685" y="0" type="line"/>
      <point x="867" y="0" type="line" smooth="yes"/>
      <point x="952" y="0"/>
      <point x="1050" y="-14"/>
      <point x="1123" y="-14" type="curve" smooth="yes"/>
      <point x="1386" y="-14"/>
      <point x="1571" y="119"/>
      <point x="1535" y="429" type="curve" smooth="yes"/>
      <point x="1506" y="682"/>
      <point x="1332" y="781"/>
      <point x="1116" y="781" type="curve" smooth="yes"/>
      <point x="1047" y="781"/>
      <point x="992" y="771"/>
    </contour>
    <contour>
      <point x="957" y="61" type="curve"/>
      <point x="959" y="700" type="line"/>
      <point x="990" y="710"/>
      <point x="1036" y="720"/>
      <point x="1082" y="720" type="curve" smooth="yes"/>
      <point x="1252" y="720"/>
      <point x="1350" y="626"/>
      <point x="1373" y="419" type="curve" smooth="yes"/>
      <point x="1401" y="179"/>
      <point x="1323" y="36"/>
      <point x="1127" y="36" type="curve" smooth="yes"/>
      <point x="1055" y="36"/>
      <point x="995" y="51"/>
    </contour>
  </outline>
</glyph>
<glyph name="nje-cy.sc" format="1">
  <advance width="1499"/>
  <outline>
    <contour>
      <point x="444" y="-144" type="move" name="btm"/>
    </contour>
    <contour>
      <point x="240" y="1444" type="move" name="top"/>
    </contour>
    <contour>
      <point x="880" y="762" type="curve"/>
      <point x="881" y="1231" type="line"/>
      <point x="991" y="1257" type="line"/>
      <point x="991" y="1292" type="line"/>
      <point x="617" y="1292" type="line"/>
      <point x="616" y="1257" type="line"/>
      <point x="726" y="1231" type="line"/>
      <point x="725" y="686" type="line"/>
      <point x="219" y="686" type="line"/>
      <point x="220" y="1231" type="line"/>
      <point x="330" y="1257" type="line"/>
      <point x="331" y="1292" type="line"/>
      <point x="-43" y="1292" type="line"/>
      <point x="-44" y="1257" type="line"/>
      <point x="64" y="1231" type="line"/>
      <point x="61" y="61" type="line"/>
      <point x="-47" y="35" type="line"/>
      <point x="-47" y="0" type="line"/>
      <point x="334" y="0" type="line"/>
      <point x="334" y="35" type="line"/>
      <point x="217" y="61" type="line"/>
      <point x="219" y="622" type="line"/>
      <point x="724" y="622" type="line"/>
      <point x="723" y="61" type="line"/>
      <point x="615" y="35" type="line"/>
      <point x="615" y="0" type="line"/>
      <point x="789" y="0" type="line" smooth="yes"/>
      <point x="874" y="0"/>
      <point x="971" y="-14"/>
      <point x="1045" y="-14" type="curve" smooth="yes"/>
      <point x="1308" y="-14"/>
      <point x="1493" y="119"/>
      <point x="1457" y="429" type="curve" smooth="yes"/>
      <point x="1427" y="682"/>
      <point x="1254" y="781"/>
      <point x="1038" y="781" type="curve" smooth="yes"/>
      <point x="969" y="781"/>
      <point x="914" y="771"/>
    </contour>
    <contour>
      <point x="879" y="61" type="curve"/>
      <point x="881" y="700" type="line"/>
      <point x="912" y="710"/>
      <point x="957" y="720"/>
      <point x="1004" y="720" type="curve" smooth="yes"/>
      <point x="1173" y="720"/>
      <point x="1272" y="626"/>
      <point x="1295" y="419" type="curve" smooth="yes"/>
      <point x="1322" y="179"/>
      <point x="1245" y="36"/>
      <point x="1049" y="36" type="curve" smooth="yes"/>
      <point x="977" y="36"/>
      <point x="918" y="51"/>
    </contour>
  </outline>
</glyph>
<glyph name="pe-cy.sc" format="1">
  <advance width="1055"/>
  <outline>
    <contour>
      <point x="576" y="-144" type="move" name="btm"/>
    </contour>
    <contour>
      <point x="357" y="1444" type="move" name="top"/>
    </contour>
    <contour>
      <point x="15" y="1292" type="line"/>
      <point x="14" y="1257" type="line"/>
      <point x="122" y="1231" type="line"/>
      <point x="119" y="61" type="line"/>
      <point x="11" y="35" type="line"/>
      <point x="10" y="0" type="line"/>
      <point x="390" y="0" type="line"/>
      <point x="391" y="35" type="line"/>
      <point x="275" y="61" type="line"/>
      <point x="278" y="1226" type="line"/>
      <point x="769" y="1226" type="line"/>
      <point x="766" y="61" type="line"/>
      <point x="657" y="35" type="line"/>
      <point x="656" y="0" type="line"/>
      <point x="1036" y="0" type="line"/>
      <point x="1037" y="35" type="line"/>
      <point x="922" y="61" type="line"/>
      <point x="925" y="1231" type="line"/>
      <point x="1033" y="1257" type="line"/>
      <point x="1034" y="1292" type="line"/>
    </contour>
  </outline>
</glyph>
<glyph name="pedescender-cy.sc" format="1">
  <advance width="1094"/>
  <outline>
    <contour>
      <point x="551" y="-144" type="move" name="btm"/>
    </contour>
    <contour>
      <point x="332" y="1444" type="move" name="top"/>
    </contour>
    <contour>
      <point x="1048" y="67" type="curve"/>
      <point x="875" y="67" type="line"/>
      <point x="763" y="63" type="line"/>
      <point x="761" y="0" type="line"/>
      <point x="911" y="0" type="line"/>
      <point x="915" y="-36"/>
      <point x="920" y="-229"/>
      <point x="921" y="-320" type="curve"/>
      <point x="1006" y="-320" type="line"/>
      <point x="1023" y="-220"/>
      <point x="1043" y="-25"/>
    </contour>
    <contour>
      <point x="-5" y="1292" type="line"/>
      <point x="-6" y="1257" type="line"/>
      <point x="102" y="1231" type="line"/>
      <point x="99" y="61" type="line"/>
      <point x="-9" y="35" type="line"/>
      <point x="-9" y="0" type="line"/>
      <point x="372" y="0" type="line"/>
      <point x="372" y="35" type="line"/>
      <point x="255" y="61" type="line"/>
      <point x="258" y="1226" type="line"/>
      <point x="750" y="1226" type="line"/>
      <point x="747" y="61" type="line"/>
      <point x="637" y="35" type="line"/>
      <point x="637" y="0" type="line"/>
      <point x="1018" y="0" type="line"/>
      <point x="1018" y="35" type="line"/>
      <point x="902" y="61" type="line"/>
      <point x="905" y="1231" type="line"/>
      <point x="1013" y="1257" type="line"/>
      <point x="1014" y="1292" type="line"/>
    </contour>
  </outline>
</glyph>
<glyph name="pemiddlehook-cy.sc" format="1">
  <advance width="1539"/>
  <outline>
    <contour>
      <point x="588" y="-144" type="move" name="btm"/>
    </contour>
    <contour>
      <point x="369" y="1444" type="move" name="top"/>
    </contour>
    <contour>
      <point x="906" y="638" type="curve"/>
      <point x="908" y="1231" type="line"/>
      <point x="1016" y="1257" type="line"/>
      <point x="1017" y="1292" type="line"/>
      <point x="-2" y="1292" type="line"/>
      <point x="-3" y="1257" type="line"/>
      <point x="105" y="1231" type="line"/>
      <point x="102" y="61" type="line"/>
      <point x="-6" y="35" type="line"/>
      <point x="-7" y="0" type="line"/>
      <point x="373" y="0" type="line"/>
      <point x="374" y="35" type="line"/>
      <point x="258" y="61" type="line"/>
      <point x="261" y="1226" type="line"/>
      <point x="752" y="1226" type="line"/>
      <point x="749" y="61" type="line"/>
      <point x="641" y="35" type="line"/>
      <point x="641" y="0" type="line"/>
      <point x="1075" y="0" type="line"/>
      <point x="1075" y="35" type="line"/>
      <point x="905" y="61" type="line"/>
      <point x="906" y="562" type="line"/>
      <point x="949" y="615"/>
      <point x="1020" y="670"/>
      <point x="1105" y="670" type="curve" smooth="yes"/>
      <point x="1247" y="670"/>
      <point x="1298" y="543"/>
      <point x="1318" y="370" type="curve" smooth="yes"/>
      <point x="1351" y="90"/>
      <point x="1302" y="-229"/>
      <point x="1064" y="-229" type="curve" smooth="yes"/>
      <point x="1043" y="-229"/>
      <point x="1017" y="-226"/>
      <point x="1000" y="-219" type="curve"/>
      <point x="1000" y="-279" type="line"/>
      <point x="1018" y="-288"/>
      <point x="1046" y="-292"/>
      <point x="1075" y="-292" type="curve" smooth="yes"/>
      <point x="1379" y="-292"/>
      <point x="1518" y="32"/>
      <point x="1476" y="384" type="curve" smooth="yes"/>
      <point x="1448" y="621"/>
      <point x="1354" y="744"/>
      <point x="1153" y="744" type="curve" smooth="yes"/>
      <point x="1053" y="744"/>
      <point x="960" y="697"/>
    </contour>
  </outline>
</glyph>
<glyph name="reversedze-cy.sc" format="1">
  <advance width="852"/>
  <outline>
    <contour>
      <point x="477" y="642" type="curve"/>
      <point x="605" y="634" type="line"/>
      <point x="607" y="722" type="line"/>
      <point x="488" y="710" type="line"/>
      <point x="347" y="710"/>
      <point x="260" y="792"/>
      <point x="241" y="966" type="curve" smooth="yes"/>
      <point x="219" y="1155"/>
      <point x="292" y="1253"/>
      <point x="449" y="1253" type="curve" smooth="yes"/>
      <point x="523" y="1253"/>
      <point x="600" y="1230"/>
      <point x="649" y="1184" type="curve"/>
      <point x="689" y="943" type="line"/>
      <point x="758" y="943" type="line"/>
      <point x="766" y="1245" type="line"/>
      <point x="656" y="1287"/>
      <point x="547" y="1309"/>
      <point x="443" y="1309" type="curve" smooth="yes"/>
      <point x="226" y="1309"/>
      <point x="56" y="1216"/>
      <point x="86" y="960" type="curve" smooth="yes"/>
      <point x="103" y="805"/>
      <point x="180" y="710"/>
      <point x="340" y="682" type="curve"/>
      <point x="124" y="626"/>
      <point x="61" y="488"/>
      <point x="81" y="322" type="curve" smooth="yes"/>
      <point x="110" y="80"/>
      <point x="264" y="-7"/>
      <point x="472" y="-7" type="curve" smooth="yes"/>
      <point x="649" y="-7"/>
      <point x="746" y="72"/>
      <point x="798" y="73" type="curve"/>
      <point x="792" y="344" type="line"/>
      <point x="724" y="344" type="line"/>
      <point x="719" y="295"/>
      <point x="712" y="198"/>
      <point x="704" y="135" type="curve"/>
      <point x="668" y="93"/>
      <point x="588" y="49"/>
      <point x="475" y="49" type="curve" smooth="yes"/>
      <point x="330" y="49"/>
      <point x="261" y="150"/>
      <point x="241" y="327" type="curve" smooth="yes"/>
      <point x="217" y="540"/>
      <point x="302" y="642"/>
    </contour>
  </outline>
</glyph>
<glyph name="semisoftsign-cy.sc" format="1">
  <advance width="880"/>
  <outline>
    <contour>
      <point x="330" y="1444" type="move" name="top"/>
    </contour>
    <contour>
      <point x="276" y="762" type="curve"/>
      <point x="277" y="959" type="line"/>
      <point x="566" y="959" type="line"/>
      <point x="566" y="1017" type="line"/>
      <point x="277" y="1017" type="line"/>
      <point x="277" y="1231" type="line"/>
      <point x="387" y="1257" type="line"/>
      <point x="388" y="1292" type="line"/>
      <point x="15" y="1292" type="line"/>
      <point x="14" y="1257" type="line"/>
      <point x="122" y="1231" type="line"/>
      <point x="121" y="1017" type="line"/>
      <point x="2" y="1017" type="line"/>
      <point x="0" y="959" type="line"/>
      <point x="121" y="959" type="line"/>
      <point x="119" y="61" type="line"/>
      <point x="11" y="35" type="line"/>
      <point x="11" y="0" type="line"/>
      <point x="185" y="0" type="line" smooth="yes"/>
      <point x="270" y="0"/>
      <point x="367" y="-14"/>
      <point x="441" y="-14" type="curve" smooth="yes"/>
      <point x="704" y="-14"/>
      <point x="889" y="119"/>
      <point x="853" y="429" type="curve" smooth="yes"/>
      <point x="823" y="682"/>
      <point x="650" y="781"/>
      <point x="434" y="781" type="curve" smooth="yes"/>
      <point x="365" y="781"/>
      <point x="310" y="771"/>
    </contour>
    <contour>
      <point x="275" y="61" type="curve"/>
      <point x="277" y="700" type="line"/>
      <point x="308" y="710"/>
      <point x="353" y="720"/>
      <point x="400" y="720" type="curve" smooth="yes"/>
      <point x="570" y="720"/>
      <point x="668" y="626"/>
      <point x="691" y="419" type="curve" smooth="yes"/>
      <point x="718" y="179"/>
      <point x="642" y="36"/>
      <point x="445" y="36" type="curve" smooth="yes"/>
      <point x="373" y="36"/>
      <point x="314" y="51"/>
    </contour>
  </outline>
</glyph>
<glyph name="sha-cy.sc" format="1">
  <advance width="1559"/>
  <outline>
    <contour>
      <point x="540" y="-144" type="move" name="btm"/>
    </contour>
    <contour>
      <point x="561" y="1444" type="move" name="top"/>
    </contour>
    <contour>
      <point x="1167" y="1292" type="line"/>
      <point x="1166" y="1257" type="line"/>
      <point x="1276" y="1231" type="line"/>
      <point x="1273" y="66" type="line"/>
      <point x="852" y="67" type="line"/>
      <point x="855" y="1231" type="line"/>
      <point x="964" y="1257" type="line"/>
      <point x="964" y="1292" type="line"/>
      <point x="590" y="1292" type="line"/>
      <point x="590" y="1257" type="line"/>
      <point x="700" y="1231" type="line"/>
      <point x="697" y="66" type="line"/>
      <point x="276" y="66" type="line"/>
      <point x="279" y="1231" type="line"/>
      <point x="387" y="1257" type="line"/>
      <point x="388" y="1292" type="line"/>
      <point x="16" y="1292" type="line"/>
      <point x="15" y="1257" type="line"/>
      <point x="123" y="1231" type="line"/>
      <point x="120" y="61" type="line"/>
      <point x="12" y="35" type="line"/>
      <point x="11" y="0" type="line"/>
      <point x="1543" y="0" type="line"/>
      <point x="1544" y="35" type="line"/>
      <point x="1429" y="61" type="line"/>
      <point x="1432" y="1231" type="line"/>
      <point x="1540" y="1257" type="line"/>
      <point x="1540" y="1292" type="line"/>
    </contour>
  </outline>
</glyph>
<glyph name="shcha-cy.sc" format="1">
  <advance width="1537"/>
  <outline>
    <contour>
      <point x="509" y="-144" type="move" name="btm"/>
    </contour>
    <contour>
      <point x="523" y="1444" type="move" name="top"/>
    </contour>
    <contour>
      <point x="1536" y="67" type="curve"/>
      <point x="1382" y="67" type="line"/>
      <point x="1385" y="1231" type="line"/>
      <point x="1493" y="1257" type="line"/>
      <point x="1493" y="1292" type="line"/>
      <point x="1120" y="1292" type="line"/>
      <point x="1119" y="1257" type="line"/>
      <point x="1229" y="1231" type="line"/>
      <point x="1227" y="66" type="line"/>
      <point x="806" y="67" type="line"/>
      <point x="809" y="1231" type="line"/>
      <point x="917" y="1257" type="line"/>
      <point x="918" y="1292" type="line"/>
      <point x="544" y="1292" type="line"/>
      <point x="543" y="1257" type="line"/>
      <point x="653" y="1231" type="line"/>
      <point x="651" y="66" type="line"/>
      <point x="229" y="66" type="line"/>
      <point x="232" y="1231" type="line"/>
      <point x="340" y="1257" type="line"/>
      <point x="341" y="1292" type="line"/>
      <point x="-31" y="1292" type="line"/>
      <point x="-32" y="1257" type="line"/>
      <point x="76" y="1231" type="line"/>
      <point x="73" y="61" type="line"/>
      <point x="-35" y="35" type="line"/>
      <point x="-35" y="0" type="line"/>
      <point x="1399" y="0" type="line"/>
      <point x="1403" y="-36"/>
      <point x="1408" y="-229"/>
      <point x="1409" y="-320" type="curve"/>
      <point x="1494" y="-320" type="line"/>
      <point x="1511" y="-220"/>
      <point x="1531" y="-25"/>
    </contour>
  </outline>
</glyph>
<glyph name="shha-cy.sc" format="1">
  <advance width="901"/>
  <outline>
    <contour>
      <point x="202" y="1444" type="move" name="top"/>
    </contour>
    <contour>
      <point x="515" y="0" type="move" name="bottom"/>
    </contour>
    <contour>
      <point x="276" y="723" type="curve"/>
      <point x="278" y="1231" type="line"/>
      <point x="388" y="1257" type="line"/>
      <point x="389" y="1292" type="line"/>
      <point x="15" y="1292" type="line"/>
      <point x="14" y="1257" type="line"/>
      <point x="122" y="1231" type="line"/>
      <point x="119" y="61" type="line"/>
      <point x="11" y="35" type="line"/>
      <point x="10" y="0" type="line"/>
      <point x="389" y="0" type="line"/>
      <point x="390" y="35" type="line"/>
      <point x="275" y="61" type="line"/>
      <point x="276" y="658" type="line"/>
      <point x="333" y="692"/>
      <point x="402" y="711"/>
      <point x="476" y="711" type="curve" smooth="yes"/>
      <point x="674" y="711"/>
      <point x="699" y="564"/>
      <point x="699" y="326" type="curve" smooth="yes"/>
      <point x="698" y="61" type="line"/>
      <point x="593" y="36" type="line"/>
      <point x="592" y="0" type="line"/>
      <point x="962" y="0" type="line"/>
      <point x="963" y="36" type="line"/>
      <point x="854" y="61" type="line"/>
      <point x="855" y="354" type="line" smooth="yes"/>
      <point x="856" y="639"/>
      <point x="757" y="782"/>
      <point x="516" y="782" type="curve" smooth="yes"/>
      <point x="430" y="782"/>
      <point x="348" y="764"/>
    </contour>
  </outline>
</glyph>
<glyph name="shhadescender-cy.sc" format="1">
  <advance width="1052"/>
  <outline>
    <contour>
      <point x="184" y="1444" type="move" name="top"/>
    </contour>
    <contour>
      <point x="499" y="0" type="move" name="bottom"/>
    </contour>
    <contour>
      <point x="1041" y="67" type="curve"/>
      <point x="777" y="67" type="line"/>
      <point x="733" y="63" type="line"/>
      <point x="724" y="0" type="line"/>
      <point x="905" y="0" type="line"/>
      <point x="908" y="-36"/>
      <point x="914" y="-229"/>
      <point x="914" y="-320" type="curve"/>
      <point x="999" y="-320" type="line"/>
      <point x="1016" y="-220"/>
      <point x="1036" y="-25"/>
    </contour>
    <contour>
      <point x="287" y="723" type="curve"/>
      <point x="288" y="1231" type="line"/>
      <point x="398" y="1257" type="line"/>
      <point x="399" y="1292" type="line"/>
      <point x="25" y="1292" type="line"/>
      <point x="24" y="1257" type="line"/>
      <point x="132" y="1231" type="line"/>
      <point x="129" y="61" type="line"/>
      <point x="21" y="35" type="line"/>
      <point x="21" y="0" type="line"/>
      <point x="400" y="0" type="line"/>
      <point x="400" y="35" type="line"/>
      <point x="285" y="61" type="line"/>
      <point x="287" y="658" type="line"/>
      <point x="343" y="692"/>
      <point x="413" y="711"/>
      <point x="487" y="711" type="curve" smooth="yes"/>
      <point x="685" y="711"/>
      <point x="709" y="564"/>
      <point x="709" y="326" type="curve" smooth="yes"/>
      <point x="709" y="61" type="line"/>
      <point x="603" y="36" type="line"/>
      <point x="603" y="0" type="line"/>
      <point x="973" y="0" type="line"/>
      <point x="973" y="36" type="line"/>
      <point x="864" y="61" type="line"/>
      <point x="865" y="354" type="line" smooth="yes"/>
      <point x="866" y="639"/>
      <point x="768" y="782"/>
      <point x="526" y="782" type="curve" smooth="yes"/>
      <point x="441" y="782"/>
      <point x="358" y="764"/>
    </contour>
  </outline>
</glyph>
<glyph name="tedescender-cy.sc" format="1">
  <advance width="965"/>
  <outline>
    <contour>
      <point x="671" y="67" type="curve"/>
      <point x="492" y="67" type="line"/>
      <point x="496" y="1244" type="line"/>
      <point x="738" y="1232" type="line"/>
      <point x="810" y="942" type="line"/>
      <point x="869" y="943" type="line"/>
      <point x="854" y="1292" type="line"/>
      <point x="-32" y="1292" type="line"/>
      <point x="-42" y="943" type="line"/>
      <point x="23" y="945" type="line"/>
      <point x="83" y="1232" type="line"/>
      <point x="339" y="1244" type="line"/>
      <point x="335" y="61" type="line"/>
      <point x="176" y="29" type="line"/>
      <point x="176" y="0" type="line"/>
      <point x="535" y="0" type="line"/>
      <point x="538" y="-36"/>
      <point x="544" y="-229"/>
      <point x="544" y="-320" type="curve"/>
      <point x="629" y="-320" type="line"/>
      <point x="646" y="-220"/>
      <point x="666" y="-25"/>
    </contour>
  </outline>
</glyph>
<glyph name="tetse-cy.sc" format="1">
  <advance width="1390"/>
  <outline>
    <contour>
      <point x="637" y="-144" type="move" name="btm"/>
    </contour>
    <contour>
      <point x="438" y="1444" type="move" name="top"/>
    </contour>
    <contour>
      <point x="1295" y="67" type="curve"/>
      <point x="1141" y="67" type="line"/>
      <point x="1144" y="1231" type="line"/>
      <point x="1252" y="1257" type="line"/>
      <point x="1253" y="1292" type="line"/>
      <point x="879" y="1292" type="line"/>
      <point x="878" y="1257" type="line"/>
      <point x="989" y="1231" type="line"/>
      <point x="986" y="66" type="line"/>
      <point x="469" y="67" type="line"/>
      <point x="472" y="1244" type="line"/>
      <point x="673" y="1232" type="line"/>
      <point x="745" y="942" type="line"/>
      <point x="805" y="943" type="line"/>
      <point x="790" y="1292" type="line"/>
      <point x="-19" y="1292" type="line"/>
      <point x="-29" y="943" type="line"/>
      <point x="36" y="945" type="line"/>
      <point x="97" y="1232" type="line"/>
      <point x="315" y="1244" type="line"/>
      <point x="312" y="61" type="line"/>
      <point x="153" y="29" type="line"/>
      <point x="153" y="0" type="line"/>
      <point x="1159" y="0" type="line"/>
      <point x="1163" y="-36"/>
      <point x="1168" y="-229"/>
      <point x="1168" y="-320" type="curve"/>
      <point x="1254" y="-320" type="line"/>
      <point x="1270" y="-220"/>
      <point x="1290" y="-25"/>
    </contour>
  </outline>
</glyph>
<glyph name="tse-cy.sc" format="1">
  <advance width="1087"/>
  <outline>
    <contour>
      <point x="501" y="1292" type="move" name="top"/>
    </contour>
    <contour>
      <point x="1041" y="67" type="curve"/>
      <point x="887" y="67" type="line"/>
      <point x="890" y="1231" type="line"/>
      <point x="998" y="1257" type="line"/>
      <point x="998" y="1292" type="line"/>
      <point x="625" y="1292" type="line"/>
      <point x="624" y="1257" type="line"/>
      <point x="734" y="1231" type="line"/>
      <point x="732" y="66" type="line"/>
      <point x="256" y="66" type="line"/>
      <point x="258" y="1231" type="line"/>
      <point x="367" y="1257" type="line"/>
      <point x="368" y="1292" type="line"/>
      <point x="-5" y="1292" type="line"/>
      <point x="-6" y="1257" type="line"/>
      <point x="102" y="1231" type="line"/>
      <point x="99" y="61" type="line"/>
      <point x="-9" y="35" type="line"/>
      <point x="-9" y="0" type="line"/>
      <point x="904" y="0" type="line"/>
      <point x="908" y="-36"/>
      <point x="913" y="-229"/>
      <point x="914" y="-320" type="curve"/>
      <point x="999" y="-320" type="line"/>
      <point x="1016" y="-220"/>
      <point x="1036" y="-25"/>
    </contour>
  </outline>
</glyph>
<glyph name="tshe-cy.sc" format="1">
  <advance width="1143"/>
  <outline>
    <contour>
      <point x="425" y="-144" type="move" name="btm"/>
    </contour>
    <contour>
      <point x="392" y="1444" type="move" name="top"/>
    </contour>
    <contour>
      <point x="503" y="723" type="curve"/>
      <point x="504" y="1244" type="line"/>
      <point x="753" y="1232" type="line"/>
      <point x="822" y="942" type="line"/>
      <point x="882" y="943" type="line"/>
      <point x="870" y="1292" type="line"/>
      <point x="-31" y="1292" type="line"/>
      <point x="-37" y="943" type="line"/>
      <point x="28" y="945" type="line"/>
      <point x="85" y="1232" type="line"/>
      <point x="348" y="1244" type="line"/>
      <point x="346" y="61" type="line"/>
      <point x="238" y="35" type="line"/>
      <point x="237" y="0" type="line"/>
      <point x="615" y="0" type="line"/>
      <point x="616" y="35" type="line"/>
      <point x="501" y="61" type="line"/>
      <point x="503" y="658" type="line"/>
      <point x="560" y="692"/>
      <point x="629" y="711"/>
      <point x="703" y="711" type="curve" smooth="yes"/>
      <point x="901" y="711"/>
      <point x="926" y="564"/>
      <point x="926" y="326" type="curve" smooth="yes"/>
      <point x="925" y="61" type="line"/>
      <point x="820" y="36" type="line"/>
      <point x="819" y="0" type="line"/>
      <point x="1188" y="0" type="line"/>
      <point x="1189" y="36" type="line"/>
      <point x="1081" y="61" type="line"/>
      <point x="1081" y="354" type="line" smooth="yes"/>
      <point x="1082" y="639"/>
      <point x="984" y="782"/>
      <point x="743" y="782" type="curve" smooth="yes"/>
      <point x="657" y="782"/>
      <point x="574" y="764"/>
    </contour>
  </outline>
</glyph>
<glyph name="udieresis-cy.sc" format="1">
  <advance width="949"/>
  <outline>
    <contour>
      <point x="525" y="1313" type="curve"/>
      <point x="569" y="1313"/>
      <point x="607" y="1359"/>
      <point x="607" y="1417" type="curve" smooth="yes"/>
      <point x="607" y="1455"/>
      <point x="585" y="1503"/>
      <point x="537" y="1503" type="curve" smooth="yes"/>
      <point x="492" y="1503"/>
      <point x="454" y="1457"/>
      <point x="454" y="1399" type="curve" smooth="yes"/>
      <point x="454" y="1361"/>
      <point x="476" y="1313"/>
    </contour>
    <contour>
      <point x="276" y="1313" type="curve"/>
      <point x="321" y="1313"/>
      <point x="359" y="1359"/>
      <point x="359" y="1417" type="curve" smooth="yes"/>
      <point x="359" y="1455"/>
      <point x="337" y="1503"/>
      <point x="288" y="1503" type="curve" smooth="yes"/>
      <point x="244" y="1503"/>
      <point x="206" y="1457"/>
      <point x="206" y="1399" type="curve" smooth="yes"/>
      <point x="206" y="1361"/>
      <point x="228" y="1313"/>
    </contour>
    <contour>
      <point x="224" y="-22" type="curve" smooth="yes"/>
      <point x="346" y="-22"/>
      <point x="414" y="51"/>
      <point x="486" y="296" type="curve" smooth="yes"/>
      <point x="763" y="1238" type="line"/>
      <point x="859" y="1256" type="line"/>
      <point x="858" y="1292" type="line"/>
      <point x="552" y="1292" type="line"/>
      <point x="552" y="1256" type="line"/>
      <point x="673" y="1236" type="line"/>
      <point x="508" y="589" type="line"/>
      <point x="439" y="304" type="line"/>
      <point x="481" y="301" type="line"/>
      <point x="382" y="602" type="line"/>
      <point x="153" y="1236" type="line"/>
      <point x="283" y="1256" type="line"/>
      <point x="283" y="1292" type="line"/>
      <point x="-96" y="1292" type="line"/>
      <point x="-97" y="1256" type="line"/>
      <point x="-4" y="1236" type="line"/>
      <point x="421" y="161" type="line"/>
      <point x="414" y="287" type="line"/>
      <point x="377" y="153"/>
      <point x="324" y="115"/>
      <point x="225" y="115" type="curve" smooth="yes"/>
      <point x="172" y="115"/>
      <point x="122" y="129"/>
      <point x="82" y="144" type="curve"/>
      <point x="83" y="15" type="line"/>
      <point x="117" y="-5"/>
      <point x="165" y="-22"/>
    </contour>
  </outline>
</glyph>
<glyph name="umacron-cy.sc" format="1">
  <advance width="949"/>
  <outline>
    <contour>
      <point x="594" y="1431" type="line"/>
      <point x="219" y="1431" type="line"/>
      <point x="219" y="1335" type="line"/>
      <point x="594" y="1335" type="line"/>
    </contour>
    <contour>
      <point x="224" y="-22" type="curve" smooth="yes"/>
      <point x="346" y="-22"/>
      <point x="414" y="51"/>
      <point x="486" y="296" type="curve" smooth="yes"/>
      <point x="763" y="1238" type="line"/>
      <point x="859" y="1256" type="line"/>
      <point x="858" y="1292" type="line"/>
      <point x="552" y="1292" type="line"/>
      <point x="552" y="1256" type="line"/>
      <point x="673" y="1236" type="line"/>
      <point x="508" y="589" type="line"/>
      <point x="439" y="304" type="line"/>
      <point x="481" y="301" type="line"/>
      <point x="382" y="602" type="line"/>
      <point x="153" y="1236" type="line"/>
      <point x="283" y="1256" type="line"/>
      <point x="283" y="1292" type="line"/>
      <point x="-96" y="1292" type="line"/>
      <point x="-97" y="1256" type="line"/>
      <point x="-4" y="1236" type="line"/>
      <point x="421" y="161" type="line"/>
      <point x="414" y="287" type="line"/>
      <point x="377" y="153"/>
      <point x="324" y="115"/>
      <point x="225" y="115" type="curve" smooth="yes"/>
      <point x="172" y="115"/>
      <point x="122" y="129"/>
      <point x="82" y="144" type="curve"/>
      <point x="83" y="15" type="line"/>
      <point x="117" y="-5"/>
      <point x="165" y="-22"/>
    </contour>
  </outline>
</glyph>
<glyph name="ushort-cy.sc" format="1">
  <advance width="949"/>
  <outline>
    <contour>
      <point x="230" y="1608" type="curve" smooth="yes"/>
      <point x="131" y="1608" type="line"/>
      <point x="131" y="1596"/>
      <point x="129" y="1584"/>
      <point x="129" y="1574" type="curve" smooth="yes"/>
      <point x="129" y="1378"/>
      <point x="239" y="1266"/>
      <point x="410" y="1266" type="curve" smooth="yes"/>
      <point x="584" y="1266"/>
      <point x="688" y="1376"/>
      <point x="688" y="1574" type="curve" smooth="yes"/>
      <point x="688" y="1584"/>
      <point x="687" y="1596"/>
      <point x="686" y="1608" type="curve"/>
      <point x="587" y="1608" type="line" smooth="yes"/>
      <point x="562" y="1608"/>
      <point x="558" y="1574"/>
      <point x="558" y="1540" type="curve" smooth="yes"/>
      <point x="558" y="1444"/>
      <point x="511" y="1316"/>
      <point x="412" y="1316" type="curve" smooth="yes"/>
      <point x="309" y="1316"/>
      <point x="259" y="1444"/>
      <point x="259" y="1540" type="curve" smooth="yes"/>
      <point x="259" y="1574"/>
      <point x="255" y="1608"/>
    </contour>
    <contour>
      <point x="224" y="-22" type="curve" smooth="yes"/>
      <point x="346" y="-22"/>
      <point x="414" y="51"/>
      <point x="486" y="296" type="curve" smooth="yes"/>
      <point x="763" y="1238" type="line"/>
      <point x="859" y="1256" type="line"/>
      <point x="858" y="1292" type="line"/>
      <point x="552" y="1292" type="line"/>
      <point x="552" y="1256" type="line"/>
      <point x="673" y="1236" type="line"/>
      <point x="508" y="589" type="line"/>
      <point x="439" y="304" type="line"/>
      <point x="481" y="301" type="line"/>
      <point x="382" y="602" type="line"/>
      <point x="153" y="1236" type="line"/>
      <point x="283" y="1256" type="line"/>
      <point x="283" y="1292" type="line"/>
      <point x="-96" y="1292" type="line"/>
      <point x="-97" y="1256" type="line"/>
      <point x="-4" y="1236" type="line"/>
      <point x="421" y="161" type="line"/>
      <point x="414" y="287" type="line"/>
      <point x="377" y="153"/>
      <point x="324" y="115"/>
      <point x="225" y="115" type="curve" smooth="yes"/>
      <point x="172" y="115"/>
      <point x="122" y="129"/>
      <point x="82" y="144" type="curve"/>
      <point x="83" y="15" type="line"/>
      <point x="117" y="-5"/>
      <point x="165" y="-22"/>
    </contour>
  </outline>
</glyph>
<glyph name="yat-cy.sc" format="1">
  <advance width="1072"/>
  <outline>
    <contour>
      <point x="504" y="1444" type="move" name="top"/>
    </contour>
    <contour>
      <point x="470" y="762" type="curve"/>
      <point x="471" y="1014" type="line"/>
      <point x="808" y="993" type="line"/>
      <point x="819" y="852" type="line"/>
      <point x="894" y="846" type="line"/>
      <point x="918" y="1074" type="line"/>
      <point x="471" y="1073" type="line"/>
      <point x="471" y="1231" type="line"/>
      <point x="581" y="1257" type="line"/>
      <point x="581" y="1292" type="line"/>
      <point x="208" y="1292" type="line"/>
      <point x="208" y="1257" type="line"/>
      <point x="315" y="1231" type="line"/>
      <point x="315" y="1073" type="line"/>
      <point x="-41" y="1072" type="line"/>
      <point x="-61" y="843" type="line"/>
      <point x="21" y="846" type="line"/>
      <point x="58" y="995" type="line"/>
      <point x="315" y="1013" type="line"/>
      <point x="312" y="61" type="line"/>
      <point x="205" y="35" type="line"/>
      <point x="205" y="0" type="line"/>
      <point x="379" y="0" type="line" smooth="yes"/>
      <point x="464" y="0"/>
      <point x="561" y="-14"/>
      <point x="634" y="-14" type="curve" smooth="yes"/>
      <point x="896" y="-14"/>
      <point x="1082" y="119"/>
      <point x="1047" y="429" type="curve" smooth="yes"/>
      <point x="1017" y="682"/>
      <point x="843" y="781"/>
      <point x="630" y="781" type="curve" smooth="yes"/>
      <point x="560" y="781"/>
      <point x="504" y="771"/>
    </contour>
    <contour>
      <point x="468" y="61" type="curve"/>
      <point x="470" y="700" type="line"/>
      <point x="503" y="710"/>
      <point x="548" y="720"/>
      <point x="595" y="720" type="curve" smooth="yes"/>
      <point x="764" y="720"/>
      <point x="862" y="626"/>
      <point x="885" y="419" type="curve" smooth="yes"/>
      <point x="912" y="179"/>
      <point x="834" y="36"/>
      <point x="639" y="36" type="curve" smooth="yes"/>
      <point x="567" y="36"/>
      <point x="507" y="51"/>
    </contour>
  </outline>
</glyph>
<glyph name="yerudieresis-cy.sc" format="1">
  <advance width="1540"/>
  <outline>
    <contour>
      <point x="959" y="1347" type="curve"/>
      <point x="1003" y="1347"/>
      <point x="1042" y="1393"/>
      <point x="1042" y="1451" type="curve" smooth="yes"/>
      <point x="1042" y="1489"/>
      <point x="1020" y="1537"/>
      <point x="971" y="1537" type="curve" smooth="yes"/>
      <point x="926" y="1537"/>
      <point x="888" y="1491"/>
      <point x="888" y="1433" type="curve" smooth="yes"/>
      <point x="888" y="1395"/>
      <point x="910" y="1347"/>
    </contour>
    <contour>
      <point x="710" y="1347" type="curve"/>
      <point x="755" y="1347"/>
      <point x="793" y="1393"/>
      <point x="793" y="1451" type="curve" smooth="yes"/>
      <point x="793" y="1489"/>
      <point x="771" y="1537"/>
      <point x="723" y="1537" type="curve" smooth="yes"/>
      <point x="678" y="1537"/>
      <point x="640" y="1491"/>
      <point x="640" y="1433" type="curve" smooth="yes"/>
      <point x="640" y="1395"/>
      <point x="662" y="1347"/>
    </contour>
    <contour>
      <point x="275" y="762" type="curve"/>
      <point x="276" y="1231" type="line"/>
      <point x="385" y="1257" type="line"/>
      <point x="386" y="1292" type="line"/>
      <point x="13" y="1292" type="line"/>
      <point x="12" y="1257" type="line"/>
      <point x="120" y="1231" type="line"/>
      <point x="117" y="61" type="line"/>
      <point x="9" y="35" type="line"/>
      <point x="10" y="0" type="line"/>
      <point x="184" y="0" type="line" smooth="yes"/>
      <point x="269" y="0"/>
      <point x="366" y="-14"/>
      <point x="439" y="-14" type="curve" smooth="yes"/>
      <point x="702" y="-14"/>
      <point x="887" y="119"/>
      <point x="852" y="429" type="curve" smooth="yes"/>
      <point x="822" y="682"/>
      <point x="649" y="781"/>
      <point x="433" y="781" type="curve" smooth="yes"/>
      <point x="364" y="781"/>
      <point x="308" y="771"/>
    </contour>
    <contour>
      <point x="273" y="61" type="curve"/>
      <point x="275" y="700" type="line"/>
      <point x="307" y="710"/>
      <point x="352" y="720"/>
      <point x="398" y="720" type="curve" smooth="yes"/>
      <point x="568" y="720"/>
      <point x="667" y="626"/>
      <point x="690" y="419" type="curve" smooth="yes"/>
      <point x="717" y="179"/>
      <point x="640" y="36"/>
      <point x="444" y="36" type="curve" smooth="yes"/>
      <point x="372" y="36"/>
      <point x="312" y="51"/>
    </contour>
  </outline>
</glyph>
<glyph name="yusbig-cy.sc" format="1">
  <advance width="1625"/>
  <outline>
    <contour>
      <point x="695" y="625" type="curve" smooth="yes"/>
      <point x="798" y="625" type="line"/>
      <point x="803" y="61" type="line"/>
      <point x="680" y="35" type="line"/>
      <point x="679" y="0" type="line"/>
      <point x="1087" y="0" type="line"/>
      <point x="1088" y="35" type="line"/>
      <point x="953" y="61" type="line"/>
      <point x="949" y="625" type="line"/>
      <point x="1045" y="625" type="line" smooth="yes"/>
      <point x="1172" y="625"/>
      <point x="1369" y="0"/>
      <point x="1456" y="0" type="curve" smooth="yes"/>
      <point x="1639" y="0" type="line"/>
      <point x="1640" y="35" type="line"/>
      <point x="1578" y="54" type="line" smooth="yes"/>
      <point x="1529" y="69"/>
      <point x="1459" y="232"/>
      <point x="1378" y="390" type="curve" smooth="yes"/>
      <point x="1294" y="544"/>
      <point x="1222" y="693"/>
      <point x="1109" y="694" type="curve" smooth="yes"/>
      <point x="988" y="695" type="line"/>
      <point x="1342" y="1229" type="line"/>
      <point x="1338" y="1292" type="line"/>
      <point x="383" y="1292" type="line"/>
      <point x="376" y="1229" type="line"/>
      <point x="754" y="695" type="line"/>
      <point x="644" y="695" type="line" smooth="yes"/>
      <point x="542" y="695"/>
      <point x="505" y="632"/>
      <point x="458" y="545" type="curve" smooth="yes"/>
      <point x="364" y="357"/>
      <point x="260" y="74"/>
      <point x="194" y="55" type="curve" smooth="yes"/>
      <point x="136" y="36" type="line"/>
      <point x="135" y="0" type="line"/>
      <point x="323" y="0" type="line" smooth="yes"/>
      <point x="422" y="0"/>
      <point x="581" y="625"/>
    </contour>
    <contour>
      <point x="1220" y="1194" type="line"/>
      <point x="872" y="642" type="line"/>
      <point x="498" y="1194" type="line"/>
    </contour>
  </outline>
</glyph>
<glyph name="zedescender-cy.sc" format="1">
  <advance width="853"/>
  <outline>
    <contour>
      <point x="50" y="1248" type="curve"/>
      <point x="53" y="944" type="line"/>
      <point x="144" y="944" type="line"/>
      <point x="165" y="1168" type="line"/>
      <point x="196" y="1211"/>
      <point x="258" y="1250"/>
      <point x="342" y="1250" type="curve" smooth="yes"/>
      <point x="473" y="1250"/>
      <point x="558" y="1181"/>
      <point x="575" y="1021" type="curve" smooth="yes"/>
      <point x="599" y="827"/>
      <point x="500" y="705"/>
      <point x="341" y="709" type="curve" smooth="yes"/>
      <point x="221" y="712" type="line"/>
      <point x="221" y="617" type="line"/>
      <point x="363" y="627" type="line"/>
      <point x="509" y="627"/>
      <point x="596" y="573"/>
      <point x="616" y="395" type="curve" smooth="yes"/>
      <point x="643" y="161"/>
      <point x="555" y="38"/>
      <point x="361" y="38" type="curve" smooth="yes"/>
      <point x="262" y="38"/>
      <point x="196" y="65"/>
      <point x="156" y="94" type="curve"/>
      <point x="118" y="357" type="line"/>
      <point x="39" y="357" type="line"/>
      <point x="26" y="51" type="line"/>
      <point x="89" y="19"/>
      <point x="204" y="-18"/>
      <point x="364" y="-18" type="curve" smooth="yes"/>
      <point x="608" y="-18"/>
      <point x="807" y="111"/>
      <point x="774" y="397" type="curve" smooth="yes"/>
      <point x="754" y="571"/>
      <point x="657" y="655"/>
      <point x="467" y="674" type="curve"/>
      <point x="616" y="713"/>
      <point x="755" y="808"/>
      <point x="729" y="1029" type="curve" smooth="yes"/>
      <point x="704" y="1244"/>
      <point x="535" y="1306"/>
      <point x="351" y="1306" type="curve" smooth="yes"/>
      <point x="215" y="1306"/>
      <point x="121" y="1252"/>
    </contour>
  </outline>
</glyph>
<glyph name="zedieresis-cy.sc" format="1">
  <advance width="853"/>
  <outline>
    <contour>
      <point x="502" y="1347" type="curve"/>
      <point x="546" y="1347"/>
      <point x="584" y="1393"/>
      <point x="584" y="1451" type="curve" smooth="yes"/>
      <point x="584" y="1489"/>
      <point x="562" y="1537"/>
      <point x="514" y="1537" type="curve" smooth="yes"/>
      <point x="469" y="1537"/>
      <point x="431" y="1491"/>
      <point x="431" y="1433" type="curve" smooth="yes"/>
      <point x="431" y="1395"/>
      <point x="453" y="1347"/>
    </contour>
    <contour>
      <point x="253" y="1347" type="curve"/>
      <point x="298" y="1347"/>
      <point x="336" y="1393"/>
      <point x="336" y="1451" type="curve" smooth="yes"/>
      <point x="336" y="1489"/>
      <point x="314" y="1537"/>
      <point x="265" y="1537" type="curve" smooth="yes"/>
      <point x="221" y="1537"/>
      <point x="183" y="1491"/>
      <point x="183" y="1433" type="curve" smooth="yes"/>
      <point x="183" y="1395"/>
      <point x="205" y="1347"/>
    </contour>
    <contour>
      <point x="50" y="1248" type="curve"/>
      <point x="53" y="944" type="line"/>
      <point x="144" y="944" type="line"/>
      <point x="165" y="1168" type="line"/>
      <point x="196" y="1211"/>
      <point x="258" y="1250"/>
      <point x="342" y="1250" type="curve" smooth="yes"/>
      <point x="473" y="1250"/>
      <point x="558" y="1181"/>
      <point x="575" y="1021" type="curve" smooth="yes"/>
      <point x="599" y="827"/>
      <point x="500" y="705"/>
      <point x="341" y="709" type="curve" smooth="yes"/>
      <point x="221" y="712" type="line"/>
      <point x="221" y="617" type="line"/>
      <point x="363" y="627" type="line"/>
      <point x="509" y="627"/>
      <point x="596" y="573"/>
      <point x="616" y="395" type="curve" smooth="yes"/>
      <point x="643" y="161"/>
      <point x="555" y="38"/>
      <point x="361" y="38" type="curve" smooth="yes"/>
      <point x="262" y="38"/>
      <point x="196" y="65"/>
      <point x="156" y="94" type="curve"/>
      <point x="118" y="357" type="line"/>
      <point x="39" y="357" type="line"/>
      <point x="26" y="51" type="line"/>
      <point x="89" y="19"/>
      <point x="204" y="-18"/>
      <point x="364" y="-18" type="curve" smooth="yes"/>
      <point x="608" y="-18"/>
      <point x="807" y="111"/>
      <point x="774" y="397" type="curve" smooth="yes"/>
      <point x="754" y="571"/>
      <point x="657" y="655"/>
      <point x="467" y="674" type="curve"/>
      <point x="616" y="713"/>
      <point x="755" y="808"/>
      <point x="729" y="1029" type="curve" smooth="yes"/>
      <point x="704" y="1244"/>
      <point x="535" y="1306"/>
      <point x="351" y="1306" type="curve" smooth="yes"/>
      <point x="215" y="1306"/>
      <point x="121" y="1252"/>
    </contour>
  </outline>
</glyph>
<glyph name="zhe-cy.sc" format="1">
  <advance width="1473"/>
  <outline>
    <contour>
      <point x="733" y="1292" type="move" name="top"/>
    </contour>
    <contour>
      <point x="1003" y="685" type="curve"/>
      <point x="1346" y="1234" type="line"/>
      <point x="1457" y="1256" type="line"/>
      <point x="1458" y="1292" type="line"/>
      <point x="1090" y="1292" type="line"/>
      <point x="1088" y="1256" type="line"/>
      <point x="1250" y="1229" type="line"/>
      <point x="937" y="694" type="line"/>
      <point x="819" y="695" type="line"/>
      <point x="815" y="1231" type="line"/>
      <point x="926" y="1257" type="line"/>
      <point x="926" y="1292" type="line"/>
      <point x="548" y="1292" type="line"/>
      <point x="547" y="1257" type="line"/>
      <point x="665" y="1231" type="line"/>
      <point x="669" y="695" type="line"/>
      <point x="551" y="695" type="line"/>
      <point x="206" y="1234" type="line"/>
      <point x="336" y="1256" type="line"/>
      <point x="338" y="1292" type="line"/>
      <point x="-8" y="1292" type="line"/>
      <point x="-9" y="1256" type="line"/>
      <point x="116" y="1229" type="line"/>
      <point x="485" y="690" type="line"/>
      <point x="341" y="668"/>
      <point x="174" y="82"/>
      <point x="82" y="55" type="curve" smooth="yes"/>
      <point x="25" y="36" type="line"/>
      <point x="24" y="0" type="line"/>
      <point x="211" y="0" type="line" smooth="yes"/>
      <point x="314" y="0"/>
      <point x="465" y="625"/>
      <point x="585" y="625" type="curve" smooth="yes"/>
      <point x="669" y="625" type="line"/>
      <point x="674" y="61" type="line"/>
      <point x="551" y="35" type="line"/>
      <point x="550" y="0" type="line"/>
      <point x="958" y="0" type="line"/>
      <point x="959" y="35" type="line"/>
      <point x="825" y="61" type="line"/>
      <point x="820" y="625" type="line"/>
      <point x="893" y="625" type="line" smooth="yes"/>
      <point x="1026" y="625"/>
      <point x="1212" y="0"/>
      <point x="1299" y="0" type="curve" smooth="yes"/>
      <point x="1488" y="0" type="line"/>
      <point x="1488" y="35" type="line"/>
      <point x="1423" y="54" type="line"/>
      <point x="1335" y="80"/>
      <point x="1181" y="614"/>
    </contour>
  </outline>
</glyph>
<glyph name="zhebreve-cy.sc" format="1">
  <advance width="1473"/>
  <outline>
    <contour>
      <point x="557" y="1642" type="curve" smooth="yes"/>
      <point x="458" y="1642" type="line"/>
      <point x="457" y="1630"/>
      <point x="456" y="1618"/>
      <point x="456" y="1608" type="curve" smooth="yes"/>
      <point x="456" y="1412"/>
      <point x="566" y="1300"/>
      <point x="737" y="1300" type="curve" smooth="yes"/>
      <point x="910" y="1300"/>
      <point x="1015" y="1410"/>
      <point x="1015" y="1608" type="curve" smooth="yes"/>
      <point x="1015" y="1618"/>
      <point x="1013" y="1630"/>
      <point x="1013" y="1642" type="curve"/>
      <point x="914" y="1642" type="line" smooth="yes"/>
      <point x="889" y="1642"/>
      <point x="885" y="1608"/>
      <point x="885" y="1574" type="curve" smooth="yes"/>
      <point x="885" y="1478"/>
      <point x="838" y="1350"/>
      <point x="738" y="1350" type="curve" smooth="yes"/>
      <point x="636" y="1350"/>
      <point x="586" y="1478"/>
      <point x="586" y="1574" type="curve" smooth="yes"/>
      <point x="586" y="1608"/>
      <point x="582" y="1642"/>
    </contour>
    <contour>
      <point x="1003" y="685" type="curve"/>
      <point x="1346" y="1234" type="line"/>
      <point x="1457" y="1256" type="line"/>
      <point x="1458" y="1292" type="line"/>
      <point x="1090" y="1292" type="line"/>
      <point x="1088" y="1256" type="line"/>
      <point x="1250" y="1229" type="line"/>
      <point x="937" y="694" type="line"/>
      <point x="819" y="695" type="line"/>
      <point x="815" y="1231" type="line"/>
      <point x="926" y="1257" type="line"/>
      <point x="926" y="1292" type="line"/>
      <point x="548" y="1292" type="line"/>
      <point x="547" y="1257" type="line"/>
      <point x="665" y="1231" type="line"/>
      <point x="669" y="695" type="line"/>
      <point x="551" y="695" type="line"/>
      <point x="206" y="1234" type="line"/>
      <point x="336" y="1256" type="line"/>
      <point x="338" y="1292" type="line"/>
      <point x="-8" y="1292" type="line"/>
      <point x="-9" y="1256" type="line"/>
      <point x="116" y="1229" type="line"/>
      <point x="485" y="690" type="line"/>
      <point x="341" y="668"/>
      <point x="174" y="82"/>
      <point x="82" y="55" type="curve" smooth="yes"/>
      <point x="25" y="36" type="line"/>
      <point x="24" y="0" type="line"/>
      <point x="211" y="0" type="line" smooth="yes"/>
      <point x="314" y="0"/>
      <point x="465" y="625"/>
      <point x="585" y="625" type="curve" smooth="yes"/>
      <point x="669" y="625" type="line"/>
      <point x="674" y="61" type="line"/>
      <point x="551" y="35" type="line"/>
      <point x="550" y="0" type="line"/>
      <point x="958" y="0" type="line"/>
      <point x="959" y="35" type="line"/>
      <point x="825" y="61" type="line"/>
      <point x="820" y="625" type="line"/>
      <point x="893" y="625" type="line" smooth="yes"/>
      <point x="1026" y="625"/>
      <point x="1212" y="0"/>
      <point x="1299" y="0" type="curve" smooth="yes"/>
      <point x="1488" y="0" type="line"/>
      <point x="1488" y="35" type="line"/>
      <point x="1423" y="54" type="line"/>
      <point x="1335" y="80"/>
      <point x="1181" y="614"/>
    </contour>
  </outline>
</glyph>
<glyph name="zhedescender-cy.sc" format="1">
  <advance width="1502"/>
  <outline>
    <contour>
      <point x="604" y="1444" type="move" name="top"/>
    </contour>
    <contour>
      <point x="975" y="685" type="curve"/>
      <point x="1318" y="1234" type="line"/>
      <point x="1429" y="1256" type="line"/>
      <point x="1430" y="1292" type="line"/>
      <point x="1061" y="1292" type="line"/>
      <point x="1061" y="1256" type="line"/>
      <point x="1222" y="1229" type="line"/>
      <point x="910" y="694" type="line"/>
      <point x="791" y="695" type="line"/>
      <point x="787" y="1231" type="line"/>
      <point x="898" y="1257" type="line"/>
      <point x="898" y="1292" type="line"/>
      <point x="519" y="1292" type="line"/>
      <point x="519" y="1257" type="line"/>
      <point x="636" y="1231" type="line"/>
      <point x="640" y="695" type="line"/>
      <point x="523" y="695" type="line"/>
      <point x="178" y="1234" type="line"/>
      <point x="309" y="1256" type="line"/>
      <point x="309" y="1292" type="line"/>
      <point x="-36" y="1292" type="line"/>
      <point x="-37" y="1256" type="line"/>
      <point x="88" y="1229" type="line"/>
      <point x="456" y="690" type="line"/>
      <point x="312" y="668"/>
      <point x="146" y="82"/>
      <point x="54" y="55" type="curve" smooth="yes"/>
      <point x="-3" y="36" type="line"/>
      <point x="-3" y="0" type="line"/>
      <point x="184" y="0" type="line" smooth="yes"/>
      <point x="286" y="0"/>
      <point x="436" y="625"/>
      <point x="556" y="625" type="curve" smooth="yes"/>
      <point x="641" y="625" type="line"/>
      <point x="646" y="61" type="line"/>
      <point x="523" y="35" type="line"/>
      <point x="523" y="0" type="line"/>
      <point x="931" y="0" type="line"/>
      <point x="931" y="35" type="line"/>
      <point x="796" y="61" type="line"/>
      <point x="792" y="625" type="line"/>
      <point x="865" y="625" type="line" smooth="yes"/>
      <point x="998" y="625"/>
      <point x="1185" y="0"/>
      <point x="1272" y="0" type="curve" smooth="yes"/>
      <point x="1380" y="0" type="line"/>
      <point x="1383" y="-36"/>
      <point x="1389" y="-229"/>
      <point x="1389" y="-320" type="curve"/>
      <point x="1474" y="-320" type="line"/>
      <point x="1491" y="-220"/>
      <point x="1511" y="-25"/>
      <point x="1516" y="67" type="curve"/>
      <point x="1376" y="67" type="line"/>
      <point x="1285" y="154"/>
      <point x="1142" y="619"/>
    </contour>
  </outline>
</glyph>
<glyph name="zhedieresis-cy.sc" format="1">
  <advance width="1473"/>
  <outline>
    <contour>
      <point x="851" y="1347" type="curve"/>
      <point x="896" y="1347"/>
      <point x="934" y="1393"/>
      <point x="934" y="1451" type="curve" smooth="yes"/>
      <point x="934" y="1489"/>
      <point x="912" y="1537"/>
      <point x="863" y="1537" type="curve" smooth="yes"/>
      <point x="819" y="1537"/>
      <point x="780" y="1491"/>
      <point x="780" y="1433" type="curve" smooth="yes"/>
      <point x="780" y="1395"/>
      <point x="802" y="1347"/>
    </contour>
    <contour>
      <point x="603" y="1347" type="curve"/>
      <point x="647" y="1347"/>
      <point x="686" y="1393"/>
      <point x="686" y="1451" type="curve" smooth="yes"/>
      <point x="686" y="1489"/>
      <point x="664" y="1537"/>
      <point x="615" y="1537" type="curve" smooth="yes"/>
      <point x="570" y="1537"/>
      <point x="532" y="1491"/>
      <point x="532" y="1433" type="curve" smooth="yes"/>
      <point x="532" y="1395"/>
      <point x="554" y="1347"/>
    </contour>
    <contour>
      <point x="1003" y="685" type="curve"/>
      <point x="1346" y="1234" type="line"/>
      <point x="1457" y="1256" type="line"/>
      <point x="1458" y="1292" type="line"/>
      <point x="1090" y="1292" type="line"/>
      <point x="1088" y="1256" type="line"/>
      <point x="1250" y="1229" type="line"/>
      <point x="937" y="694" type="line"/>
      <point x="819" y="695" type="line"/>
      <point x="815" y="1231" type="line"/>
      <point x="926" y="1257" type="line"/>
      <point x="926" y="1292" type="line"/>
      <point x="548" y="1292" type="line"/>
      <point x="547" y="1257" type="line"/>
      <point x="665" y="1231" type="line"/>
      <point x="669" y="695" type="line"/>
      <point x="551" y="695" type="line"/>
      <point x="206" y="1234" type="line"/>
      <point x="336" y="1256" type="line"/>
      <point x="338" y="1292" type="line"/>
      <point x="-8" y="1292" type="line"/>
      <point x="-9" y="1256" type="line"/>
      <point x="116" y="1229" type="line"/>
      <point x="485" y="690" type="line"/>
      <point x="341" y="668"/>
      <point x="174" y="82"/>
      <point x="82" y="55" type="curve" smooth="yes"/>
      <point x="25" y="36" type="line"/>
      <point x="24" y="0" type="line"/>
      <point x="211" y="0" type="line" smooth="yes"/>
      <point x="314" y="0"/>
      <point x="465" y="625"/>
      <point x="585" y="625" type="curve" smooth="yes"/>
      <point x="669" y="625" type="line"/>
      <point x="674" y="61" type="line"/>
      <point x="551" y="35" type="line"/>
      <point x="550" y="0" type="line"/>
      <point x="958" y="0" type="line"/>
      <point x="959" y="35" type="line"/>
      <point x="825" y="61" type="line"/>
      <point x="820" y="625" type="line"/>
      <point x="893" y="625" type="line" smooth="yes"/>
      <point x="1026" y="625"/>
      <point x="1212" y="0"/>
      <point x="1299" y="0" type="curve" smooth="yes"/>
      <point x="1488" y="0" type="line"/>
      <point x="1488" y="35" type="line"/>
      <point x="1423" y="54" type="line"/>
      <point x="1335" y="80"/>
      <point x="1181" y="614"/>
    </contour>
  </outline>
</glyph>
